<?xml version="1.0" encoding="UTF-8" standalone="no"?>
<!DOCTYPE svg PUBLIC "-//W3C//DTD SVG 1.1//EN" "http://www.w3.org/Graphics/SVG/1.1/DTD/svg11.dtd">
<svg width="100%" height="100%" viewBox="0 0 800 50" version="1.1" xmlns="http://www.w3.org/2000/svg" xmlns:xlink="http://www.w3.org/1999/xlink" xml:space="preserve" xmlns:serif="http://www.serif.com/" style="fill-rule:evenodd;clip-rule:evenodd;stroke-linejoin:round;stroke-miterlimit:2;">
    <g id="Calque-1" serif:id="Calque 1" transform="matrix(1,0,0,1,-49.1246,-402.362)">
        <g id="rect2985" transform="matrix(1,0,0,1,-0.875397,0)">
            <rect x="50" y="402.362" width="800" height="50" style="fill:url(#_Linear1);"/>
        </g>
        <g transform="matrix(0.110547,0,0,0.110547,116.488,427.362)">
            <g transform="matrix(1,0,0,1,-591.1,-208.2)">
                <clipPath id="_clip2">
                    <rect x="0" y="0" width="1182.2" height="416.4"/>
                </clipPath>
                <g clip-path="url(#_clip2)">
                    <g id="Calque_2">
                        <g id="Calque_1-2">
                            <path d="M396.64,318.57L302.88,318.57L302.88,347.27L367.94,347.27L368.01,348.76C359.25,373.76 339.16,388.15 307.47,388.15C270.85,388.15 243.24,358.81 243.24,321.69C243.24,283.1 271.99,252.64 310.11,252.64C339.33,252.64 360.11,266.98 371.96,292.64L398.85,280.24C382.23,244.24 350.72,224.43 310.11,224.43C256.01,224.43 213.64,267.17 213.64,321.73C213.64,374.84 254.85,416.44 307.47,416.44C334.93,416.44 355.66,405.36 370.64,388.07L373.34,409.68L396.64,409.68L396.64,321.29L396.79,320.4L396.64,320.4L396.64,318.57Z" style="fill:rgb(225,37,27);fill-rule:nonzero;"/>
                            <path d="M396.64,163.29L248.36,163.29L248.36,115.96L379.56,115.96L379.56,88.52L248.36,88.52L248.36,41.2L396.64,41.2L396.64,13L218.15,13L218.15,191.49L396.64,191.49L396.64,163.29Z" style="fill:rgb(225,37,27);fill-rule:nonzero;"/>
                            <path d="M148.03,86.76L30.21,86.76L30.21,13L0,13L0,191.49L30.21,191.49L30.21,115.21L148.03,115.21L148.03,191.49L178.49,191.49L178.49,13L148.03,13L148.03,86.76Z" style="fill:rgb(225,37,27);fill-rule:nonzero;"/>
                            <path d="M104.35,381.19L104.35,259.6L178.49,259.6L178.49,231.15L0,231.15L0,259.6L74.14,259.6L74.14,381.19L0,381.19L0,409.64L178.49,409.64L178.49,381.19L104.35,381.19Z" style="fill:rgb(225,37,27);fill-rule:nonzero;"/>
                            <path d="M473.29,13L485.38,13L466.74,64L455,64L436.3,13L448.83,13L461.13,48.9L473.29,13Z" style="fill:rgb(225,37,27);fill-rule:nonzero;"/>
                            <path d="M494.79,64L494.79,13L513.28,13C528.61,13 538.89,22.79 538.89,38.55C538.89,54.31 528.61,64 513.21,64L494.79,64ZM512.79,53.28C520.64,53.28 527.05,48.74 527.05,38.53C527.05,28.32 520.64,23.7 512.79,23.7L506.18,23.7L506.18,53.3L512.79,53.28Z" style="fill:rgb(225,37,27);fill-rule:nonzero;"/>
                            <path d="M686.28,64.13L686.28,43.83L665.91,43.83L665.91,64.13L654.53,64.13L654.53,13.13L665.91,13.13L665.91,33.13L686.28,33.13L686.28,13.13L697.72,13.13L697.72,64.13L686.28,64.13Z" style="fill:rgb(225,37,27);fill-rule:nonzero;"/>
                            <path d="M739.32,53.77L719.6,53.77L715.93,64.13L704,64.13L723.22,13.13L736.39,13.13L755.39,64.13L743,64.13L739.32,53.77ZM723.32,43.4L735.7,43.4L729.58,25.77L723.32,43.4Z" style="fill:rgb(225,37,27);fill-rule:nonzero;"/>
                            <path d="M759.69,45.71L759.69,13.1L771.07,13.1L771.07,44.77C771.07,50.96 774.52,54.06 779.92,54.06C785.32,54.06 788.77,50.96 788.77,44.77L788.77,13.1L800.14,13.1L800.14,45.71C800.14,58.52 791.14,65.28 779.92,65.28C768.7,65.28 759.69,58.52 759.69,45.71Z" style="fill:rgb(225,37,27);fill-rule:nonzero;"/>
                            <path d="M833.69,24L833.69,64.13L822.31,64.13L822.31,24L806.62,24L806.62,13.1L849.45,13.1L849.45,24L833.69,24Z" style="fill:rgb(225,37,27);fill-rule:nonzero;"/>
                            <path d="M856.43,64.13L856.43,13.13L888.75,13.13L888.75,23.82L867.75,23.82L867.75,33.54L886.75,33.54L886.75,43.54L867.75,43.54L867.75,53.33L888.75,53.33L888.75,64.13L856.43,64.13Z" style="fill:rgb(225,37,27);fill-rule:nonzero;"/>
                            <path d="M915,64.13L915,13.13L947.32,13.13L947.32,23.82L926.32,23.82L926.32,33.54L945.32,33.54L945.32,43.54L926.32,43.54L926.32,53.33L947.32,53.33L947.32,64.13L915,64.13ZM933.81,9.5L924.09,9.5L931.57,0L944.57,0L933.81,9.5Z" style="fill:rgb(225,37,27);fill-rule:nonzero;"/>
                            <path d="M953.17,38.72C953.17,22.82 965.26,12.02 979.51,12.02C994.84,12.02 1001.61,21.88 1003.26,29.22L992.54,32.61C991.75,29.08 988.54,23.1 979.54,23.1C972.67,23.1 965,28 965,38.72C965,48.3 972.06,53.84 979.69,53.84C988.54,53.84 992.07,47.94 993.07,44.27L1003.94,47.36C1002.29,54.42 995.52,65.21 979.69,65.21C965,65.21 953.17,54.63 953.17,38.72Z" style="fill:rgb(225,37,27);fill-rule:nonzero;"/>
                            <path d="M1034.79,12C1049.11,12 1061.28,22.44 1061.28,38.63C1061.28,54.82 1049.11,65.19 1034.79,65.19C1020.47,65.19 1008.23,54.76 1008.23,38.63C1008.23,22.5 1020.4,12 1034.79,12ZM1034.79,54C1041.79,54 1049.47,49.25 1049.47,38.6C1049.47,27.95 1041.84,23.12 1034.79,23.12C1027.74,23.12 1020,27.93 1020,38.58C1020,49.23 1027.67,54 1034.79,54Z" style="fill:rgb(225,37,27);fill-rule:nonzero;"/>
                            <path d="M1069.84,64.13L1069.84,13.13L1081.22,13.13L1081.22,53.26L1103.22,53.26L1103.22,64.13L1069.84,64.13Z" style="fill:rgb(225,37,27);fill-rule:nonzero;"/>
                            <path d="M1110.15,64.13L1110.15,13.13L1142.47,13.13L1142.47,23.82L1121.47,23.82L1121.47,33.54L1140.47,33.54L1140.47,43.54L1121.47,43.54L1121.47,53.33L1142.47,53.33L1142.47,64.13L1110.15,64.13Z" style="fill:rgb(225,37,27);fill-rule:nonzero;"/>
                            <path d="M654.53,150.52L654.53,99.52L673,99.52C688.33,99.52 698.63,109.31 698.63,125.07C698.63,140.83 688.33,150.55 672.93,150.55L654.53,150.52ZM672.53,139.8C680.38,139.8 686.78,135.26 686.78,125.04C686.78,114.82 680.38,110.21 672.53,110.21L665.91,110.21L665.91,139.8L672.53,139.8Z" style="fill:rgb(225,37,27);fill-rule:nonzero;"/>
                            <path d="M711.32,99.13C715.64,99.13 718.02,102.66 718.02,106.4C718.02,116.33 710.96,119.86 706.21,120.22L706.21,115.33C708.73,115.04 711.97,113.17 712.33,109.85C711.826,110.043 711.29,110.141 710.75,110.14C710.611,110.151 710.472,110.157 710.333,110.157C707.475,110.157 705.123,107.805 705.123,104.947C705.123,104.854 705.125,104.762 705.13,104.67C705.13,101.65 707.65,99.13 711.32,99.13Z" style="fill:rgb(225,37,27);fill-rule:nonzero;"/>
                            <rect x="726.37" y="99.52" width="11.51" height="51" style="fill:rgb(225,37,27);fill-rule:nonzero;"/>
                            <path d="M781.72,150.52L760.7,117L760.7,150.54L749.4,150.54L749.4,99.54L763.22,99.54L782.37,130.54L782.37,99.54L793.74,99.54L793.74,150.54L781.72,150.52Z" style="fill:rgb(225,37,27);fill-rule:nonzero;"/>
                            <path d="M843.19,150.52L842.47,145.34C840.23,148.58 835.41,151.6 828.14,151.6C814,151.6 802.3,141.17 802.3,125C802.3,108.83 814.47,98.37 828.86,98.37C843.47,98.37 850.24,107.01 852.47,114.13L841.53,118C840.74,114.83 837.36,109.07 828.86,109.07C821.95,109.07 813.86,113.68 813.86,125.07C813.86,135.73 820.86,141.27 829.19,141.27C837.52,141.27 841.19,135.8 841.79,132.92L826.41,132.92L826.41,123.27L852.41,123.27L852.41,150.55L843.19,150.52Z" style="fill:rgb(225,37,27);fill-rule:nonzero;"/>
                            <path d="M862,150.52L862,99.52L894.32,99.52L894.32,110.24L873.42,110.24L873.42,119.96L892.42,119.96L892.42,129.96L873.42,129.96L873.42,139.75L894.42,139.75L894.42,150.54L862,150.52ZM880.9,95.89L871.18,95.89L878.67,86.39L891.67,86.39L880.9,95.89Z" style="fill:rgb(225,37,27);fill-rule:nonzero;"/>
                            <path d="M936.18,150.52L915.18,116.98L915.18,150.52L903.88,150.52L903.88,99.52L917.7,99.52L936.85,130.52L936.85,99.52L948.2,99.52L948.2,150.52L936.18,150.52Z" style="fill:rgb(225,37,27);fill-rule:nonzero;"/>
                            <rect x="959.71" y="99.52" width="11.52" height="51" style="fill:rgb(225,37,27);fill-rule:nonzero;"/>
                            <path d="M982.75,150.52L982.75,99.52L1015.07,99.52L1015.07,110.24L994.07,110.24L994.07,119.96L1013.07,119.96L1013.07,129.96L994.07,129.96L994.07,139.75L1015.07,139.75L1015.07,150.54L982.75,150.52Z" style="fill:rgb(225,37,27);fill-rule:nonzero;"/>
                            <path d="M1040,131.52L1036,131.52L1036,150.52L1024.63,150.52L1024.63,99.52L1044.85,99.52C1054.93,99.52 1061.41,106.43 1061.41,115.52C1061.62,122.006 1057.5,127.895 1051.33,129.91L1061.69,150.57L1049.17,150.57L1040,131.52ZM1042.66,121.73C1047.34,121.73 1049.86,119.14 1049.86,115.54C1049.86,111.73 1047.34,109.35 1042.66,109.35L1035.97,109.35L1035.97,121.73L1042.66,121.73Z" style="fill:rgb(225,37,27);fill-rule:nonzero;"/>
                            <rect x="1070.2" y="99.52" width="11.52" height="51" style="fill:rgb(225,37,27);fill-rule:nonzero;"/>
                            <path d="M1093.23,150.52L1093.23,99.52L1125.55,99.52L1125.55,110.24L1104.55,110.24L1104.55,119.96L1123.55,119.96L1123.55,129.96L1104.55,129.96L1104.55,139.75L1125.55,139.75L1125.55,150.54L1093.23,150.52Z" style="fill:rgb(225,37,27);fill-rule:nonzero;"/>
                            <path d="M654.53,236.91L654.53,185.91L686.85,185.91L686.85,196.6L665.91,196.6L665.91,206.32L684.91,206.32L684.91,216.32L665.91,216.32L665.91,226.11L686.91,226.11L686.91,236.9L654.53,236.91Z" style="fill:rgb(225,37,27);fill-rule:nonzero;"/>
                            <path d="M718.88,196.75L718.88,236.91L707.51,236.91L707.51,196.75L691.82,196.75L691.82,185.88L734.65,185.88L734.65,196.75L718.88,196.75Z" style="fill:rgb(225,37,27);fill-rule:nonzero;"/>
                            <path d="M756.46,236.91L756.46,185.91L775,185.91C790.33,185.91 800.63,195.7 800.63,211.46C800.63,227.22 790.33,236.94 774.93,236.94L756.46,236.91ZM774.46,226.19C782.31,226.19 788.71,221.65 788.71,211.43C788.71,201.21 782.31,196.6 774.46,196.6L767.84,196.6L767.84,226.19L774.46,226.19Z" style="fill:rgb(225,37,27);fill-rule:nonzero;"/>
                            <path d="M809.29,236.91L809.29,185.91L841.6,185.91L841.6,196.6L820.66,196.6L820.66,206.32L839.66,206.32L839.66,216.32L820.66,216.32L820.66,226.11L841.66,226.11L841.66,236.9L809.29,236.91Z" style="fill:rgb(225,37,27);fill-rule:nonzero;"/>
                            <path d="M905.74,236.91L905.02,231.73C902.78,235 898,238 890.69,238C876.51,238 864.85,227.57 864.85,211.44C864.85,195.31 877,184.8 891.41,184.8C906.02,184.8 912.79,193.44 915.02,200.56L904.08,204.38C903.29,201.21 899.91,195.45 891.41,195.45C884.5,195.45 876.41,200.06 876.41,211.45C876.41,222.1 883.41,227.65 891.74,227.65C900.07,227.65 903.69,222.18 904.34,219.3L889,219.3L889,209.65L915,209.65L915,236.93L905.74,236.91Z" style="fill:rgb(225,37,27);fill-rule:nonzero;"/>
                            <path d="M924.59,236.91L924.59,185.91L956.91,185.91L956.91,196.6L936,196.6L936,206.32L955,206.32L955,216.32L936,216.32L936,226.11L957,226.11L957,236.9L924.59,236.91Z" style="fill:rgb(225,37,27);fill-rule:nonzero;"/>
                            <path d="M991.53,201.28C991.17,198.91 989.23,194.88 983.04,194.88C978.79,194.88 976.04,197.54 976.04,200.35C976.04,202.79 977.55,204.59 981.04,205.24L987.88,206.54C997.6,208.34 1002.64,214.6 1002.64,221.87C1002.64,229.87 995.94,237.99 983.78,237.99C969.67,237.99 963.63,228.85 962.91,221.65L973.34,219.13C973.77,223.81 976.94,227.92 983.92,227.92C988.39,227.92 991.12,225.76 991.12,222.59C991.12,220 989.03,218.13 985.65,217.48L978.65,216.18C970.01,214.53 964.76,208.77 964.76,201.18C964.76,191.54 973.25,184.77 983.04,184.77C995.78,184.77 1000.6,192.4 1001.68,198.37L991.53,201.28Z" style="fill:rgb(225,37,27);fill-rule:nonzero;"/>
                            <path d="M1033.42,196.75L1033.42,236.91L1022.05,236.91L1022.05,196.75L1006.36,196.75L1006.36,185.88L1049.19,185.88L1049.19,196.75L1033.42,196.75Z" style="fill:rgb(225,37,27);fill-rule:nonzero;"/>
                            <rect x="1056.17" y="185.91" width="11.51" height="51" style="fill:rgb(225,37,27);fill-rule:nonzero;"/>
                            <path d="M1102.81,184.8C1117.13,184.8 1129.3,195.24 1129.3,211.43C1129.3,227.62 1117.13,238 1102.81,238C1088.49,238 1076.25,227.57 1076.25,211.44C1076.25,195.31 1088.41,184.8 1102.81,184.8ZM1102.81,226.8C1109.81,226.8 1117.49,222.05 1117.49,211.4C1117.49,200.75 1109.86,195.92 1102.81,195.92C1095.76,195.92 1088.05,200.75 1088.05,211.4C1088.05,222.05 1095.68,226.76 1102.81,226.76L1102.81,226.8Z" style="fill:rgb(225,37,27);fill-rule:nonzero;"/>
                            <path d="M1170.18,236.91L1149.18,203.37L1149.18,236.91L1137.88,236.91L1137.88,185.91L1151.7,185.91L1170.85,216.91L1170.85,185.91L1182.22,185.91L1182.22,236.91L1170.18,236.91Z" style="fill:rgb(225,37,27);fill-rule:nonzero;"/>
                            <path d="M654.53,323.3L654.53,272.3L673,272.3C688.33,272.3 698.63,282.09 698.63,297.85C698.63,313.61 688.36,323.3 673,323.3L654.53,323.3ZM672.53,312.58C680.38,312.58 686.78,308.04 686.78,297.82C686.78,287.6 680.38,283 672.53,283L665.91,283L665.91,312.59L672.53,312.58Z" style="fill:rgb(225,37,27);fill-rule:nonzero;"/>
                            <path d="M706.86,304.88L706.86,272.27L718.23,272.27L718.23,303.94C718.23,310.13 721.69,313.23 727.09,313.23C732.49,313.23 735.94,310.13 735.94,303.94L735.94,272.27L747.31,272.27L747.31,304.88C747.31,317.69 738.31,324.45 727.09,324.45C715.87,324.45 706.86,317.69 706.86,304.88Z" style="fill:rgb(225,37,27);fill-rule:nonzero;"/>
                            <path d="M772.07,297.89C772.07,281.99 784.17,271.19 798.42,271.19C813.75,271.19 820.51,281.05 822.17,288.39L811.45,291.78C810.65,288.25 807.45,282.27 798.45,282.27C791.61,282.27 783.91,287.17 783.91,297.89C783.91,307.47 790.91,313.01 798.59,313.01C807.44,313.01 810.97,307.11 811.98,303.44L822.85,306.53C821.19,313.59 814.43,324.38 798.59,324.38C783.88,324.38 772.07,313.8 772.07,297.89Z" style="fill:rgb(225,37,27);fill-rule:nonzero;"/>
                            <path d="M859.24,312.94L839.52,312.94L835.85,323.3L823.85,323.3L843.07,272.3L856.24,272.3L875.24,323.3L862.91,323.3L859.24,312.94ZM843.24,302.57L855.62,302.57L849.5,284.94L843.24,302.57Z" style="fill:rgb(225,37,27);fill-rule:nonzero;"/>
                            <path d="M913.94,323.3L892.94,289.76L892.94,323.3L881.64,323.3L881.64,272.3L895.46,272.3L914.61,303.3L914.61,272.3L926,272.3L926,323.3L913.94,323.3Z" style="fill:rgb(225,37,27);fill-rule:nonzero;"/>
                            <path d="M960,283.14L960,323.3L948.63,323.3L948.63,283.14L932.94,283.14L932.94,272.27L975.77,272.27L975.77,283.14L960,283.14Z" style="fill:rgb(225,37,27);fill-rule:nonzero;"/>
                            <path d="M1005,271.19C1019.33,271.19 1031.49,281.63 1031.49,297.82C1031.49,314.01 1019.33,324.38 1005,324.38C990.67,324.38 978.43,314 978.43,297.82C978.43,281.64 990.6,271.19 1005,271.19ZM1005,313.19C1012.06,313.19 1019.69,308.44 1019.69,297.79C1019.69,287.14 1012.06,282.31 1005,282.31C997.94,282.31 990.25,287.14 990.25,297.79C990.25,308.44 997.87,313.15 1005,313.15L1005,313.19Z" style="fill:rgb(225,37,27);fill-rule:nonzero;"/>
                            <path d="M1072.36,323.3L1051.36,289.76L1051.36,323.3L1040,323.3L1040,272.3L1053.82,272.3L1072.97,303.3L1072.97,272.3L1084.34,272.3L1084.34,323.3L1072.36,323.3Z" style="fill:rgb(225,37,27);fill-rule:nonzero;"/>
                            <path d="M654.53,409.69L654.53,358.69L673,358.69C688.33,358.69 698.63,368.48 698.63,384.24C698.63,400 688.33,409.72 672.93,409.72L654.53,409.69ZM672.53,398.97C680.38,398.97 686.78,394.43 686.78,384.21C686.78,373.99 680.38,369.38 672.53,369.38L665.91,369.38L665.91,399L672.53,398.97Z" style="fill:rgb(225,37,27);fill-rule:nonzero;"/>
                            <path d="M707.37,409.69L707.37,358.69L739.68,358.69L739.68,369.41L718.74,369.41L718.74,379.13L737.74,379.13L737.74,389.13L718.74,389.13L718.74,398.92L739.74,398.92L739.74,409.71L707.37,409.69Z" style="fill:rgb(225,37,27);fill-rule:nonzero;"/>
                            <path d="M795.47,358.66L807.56,358.66L788.92,409.66L777.18,409.66L758.47,358.66L771,358.66L783.31,394.58L795.47,358.66Z" style="fill:rgb(225,37,27);fill-rule:nonzero;"/>
                            <path d="M840,399.33L820.23,399.33L816.56,409.69L804.61,409.69L823.83,358.69L837,358.69L856,409.69L843.62,409.69L840,399.33ZM824,389L836.38,389L830.26,371.37L824,389Z" style="fill:rgb(225,37,27);fill-rule:nonzero;"/>
                            <path d="M860.32,391.27L860.32,358.66L871.69,358.66L871.69,390.33C871.69,396.52 875.15,399.62 880.54,399.62C885.93,399.62 889.4,396.52 889.4,390.33L889.4,358.66L900.77,358.66L900.77,391.27C900.77,404.08 891.77,410.84 880.54,410.84C869.31,410.84 860.32,404.08 860.32,391.27Z" style="fill:rgb(225,37,27);fill-rule:nonzero;"/>
                            <path d="M911.78,409.69L911.78,358.69L930.28,358.69C945.61,358.69 955.9,368.48 955.9,384.24C955.9,400 945.61,409.72 930.21,409.72L911.78,409.69ZM929.78,398.97C937.62,398.97 944.03,394.43 944.03,384.21C944.03,373.99 937.62,369.38 929.78,369.38L923.15,369.38L923.15,399L929.78,398.97Z" style="fill:rgb(225,37,27);fill-rule:nonzero;"/>
                        </g>
                    </g>
                </g>
            </g>
        </g>
    </g>
    <defs>
        <linearGradient id="_Linear1" x1="0" y1="0" x2="1" y2="0" gradientUnits="userSpaceOnUse" gradientTransform="matrix(-385,-0.71426,0.71426,-385,435.714,428.791)"><stop offset="0" style="stop-color:rgb(154,153,255);stop-opacity:1"/><stop offset="0.46" style="stop-color:rgb(233,233,255);stop-opacity:1"/><stop offset="1" style="stop-color:white;stop-opacity:1"/></linearGradient>
    </defs>
</svg>
