<?xml version="1.0" encoding="UTF-8" standalone="no"?>
<!-- Created with Inkscape (http://www.inkscape.org/) -->

<svg
   width="606"
   height="203"
   viewBox="0 0 160.33754 53.710421"
   version="1.1"
   id="svg1"
   inkscape:version="1.3 (0e150ed, 2023-07-21)"
   sodipodi:docname="gaps-full.svg"
   inkscape:export-filename="gaps-full-2.jpg"
   inkscape:export-xdpi="96"
   inkscape:export-ydpi="96"
   xmlns:inkscape="http://www.inkscape.org/namespaces/inkscape"
   xmlns:sodipodi="http://sodipodi.sourceforge.net/DTD/sodipodi-0.dtd"
   xmlns="http://www.w3.org/2000/svg"
   xmlns:svg="http://www.w3.org/2000/svg">
  <sodipodi:namedview
     id="namedview1"
     pagecolor="#ffffff"
     bordercolor="#000000"
     borderopacity="0.25"
     inkscape:showpageshadow="2"
     inkscape:pageopacity="0.0"
     inkscape:pagecheckerboard="0"
     inkscape:deskcolor="#d1d1d1"
     inkscape:document-units="mm"
     inkscape:zoom="0.92442793"
     inkscape:cx="287.74552"
     inkscape:cy="96.816633"
     inkscape:window-width="1440"
     inkscape:window-height="784"
     inkscape:window-x="0"
     inkscape:window-y="25"
     inkscape:window-maximized="0"
     inkscape:current-layer="layer1" />
  <defs
     id="defs1" />
  <g
     inkscape:label="Calque 1"
     inkscape:groupmode="layer"
     id="layer1"
     transform="translate(-17.750963,-90.782012)">
    <rect
       style="fill:#333333;stroke:#333333;stroke-width:2;stroke-linecap:round;stroke-linejoin:round;stroke-miterlimit:4.6;stroke-dasharray:none;paint-order:markers stroke fill"
       id="rect1"
       width="0.35414663"
       height="50.920242"
       x="88.128021"
       y="92.282013" />
    <g
       id="g101"
       transform="translate(0,2.6188434)">
      <path
         d="m 45.95751,116.90135 c -0.257377,-0.0941 -0.626747,-0.23264 -0.771012,-0.28422 -0.162133,-0.0609 -0.327432,-0.12231 -0.363802,-0.13591 -0.0364,-0.0169 -0.198871,-0.0775 -0.364319,-0.13849 -0.509559,-0.18295 -0.714736,-0.2609 -1.05885,-0.38964 -0.181983,-0.0678 -0.532352,-0.20026 -0.777214,-0.28836 -0.244852,-0.0881 -0.595739,-0.21664 -0.77773,-0.28784 -0.181986,-0.0678 -0.456849,-0.16904 -0.612366,-0.22324 -0.08335,-0.0306 -0.130952,-0.0494 -0.208256,-0.078 -0.12529,0.25488 -0.258474,0.50033 -0.374137,0.76636 -0.110022,0.25305 -0.213273,0.51023 -0.309542,0.77153 -0.09627,0.2613 -0.185685,0.52678 -0.268201,0.79633 -0.08252,0.26956 -0.158096,0.54282 -0.226859,0.82063 -0.06876,0.2778 -0.131025,0.55988 -0.186036,0.84594 -0.05501,0.28605 -0.102919,0.57644 -0.144177,0.87075 -0.04126,0.2943 -0.07585,0.59247 -0.103353,0.89503 -0.0275,0.30256 -0.04774,0.60955 -0.0615,0.92036 -0.01375,0.31081 -0.02067,0.62558 -0.02067,0.94465 0,0.32272 0.0063,0.64096 0.01912,0.95498 0.01284,0.31401 0.03221,0.62383 0.05788,0.92914 0.02567,0.30531 0.05761,0.60619 0.09612,0.90279 0.03851,0.29659 0.08353,0.58905 0.134875,0.87694 0.05134,0.28789 0.108937,0.57142 0.173116,0.8506 0.06418,0.27918 0.134859,0.55377 0.211874,0.82424 0.07702,0.27047 0.160263,0.53664 0.250114,0.7984 0.08985,0.26176 0.186184,0.51899 0.288871,0.77204 0.212708,0.49877 0.442849,0.97917 0.690397,1.44126 0.247548,0.46209 0.512395,0.90629 0.794784,1.3317 0.282388,0.42542 0.582458,0.83237 0.899686,1.22112 0.317229,0.38874 0.652005,0.75897 1.004073,1.11104 0.352069,0.34473 0.717517,0.66919 1.097091,0.97358 0.379574,0.3044 0.773211,0.58861 1.18029,0.85266 0.407079,0.26406 0.827871,0.50803 1.262455,0.73174 0.434584,0.22371 0.883048,0.42745 1.345138,0.61082 0.469424,0.18337 0.943025,0.34358 1.421618,0.48111 0.478593,0.13752 0.962279,0.25248 1.450041,0.34416 0.487761,0.0917 0.979982,0.16035 1.476912,0.20619 0.49693,0.0458 0.998203,0.0687 1.504301,0.0687 0.30806,0 0.609631,-0.008 0.904855,-0.0248 0.295224,-0.0165 0.584225,-0.0414 0.866613,-0.0744 0.282389,-0.033 0.558304,-0.074 0.827857,-0.12351 0.269552,-0.0495 0.532899,-0.10762 0.789616,-0.17363 0.256716,-0.066 0.505711,-0.13744 0.747758,-0.21446 0.242047,-0.077 0.476972,-0.15951 0.704349,-0.24753 0.227378,-0.088 0.4472,-0.18158 0.659908,-0.2806 0.212709,-0.099 0.418462,-0.20365 0.6165,-0.31368 0.396077,-0.22004 0.762793,-0.45093 1.100192,-0.69298 0.168699,-0.12102 0.330178,-0.24451 0.484208,-0.37103 0.15403,-0.12653 0.300406,-0.25607 0.439766,-0.38809 0.293391,-0.27872 0.557488,-0.56092 0.7922,-0.84698 0.234712,-0.28606 0.439949,-0.57581 0.615983,-0.8692 l 0.396358,3.96048 H 68.90288 V 122.53098 H 53.631977 v 4.62091 h 10.298079 c -0.01467,0.16869 -0.03831,0.34199 -0.07131,0.51986 -0.03301,0.17787 -0.07526,0.36022 -0.126607,0.54725 -0.05134,0.18704 -0.111704,0.37896 -0.181385,0.57516 -0.06968,0.19621 -0.148661,0.39718 -0.236678,0.60255 -0.08802,0.19804 -0.187118,0.39296 -0.297139,0.58549 -0.110022,0.19254 -0.230743,0.38244 -0.362769,0.56948 -0.132025,0.18703 -0.275401,0.3714 -0.429431,0.55294 -0.15403,0.18153 -0.319026,0.36036 -0.49506,0.5364 -0.176034,0.17603 -0.364668,0.34529 -0.566374,0.50849 -0.201706,0.1632 -0.416511,0.32041 -0.643888,0.47078 -0.227378,0.15036 -0.46732,0.29397 -0.72037,0.43149 -0.253049,0.13753 -0.519163,0.26857 -0.797884,0.39326 -0.271386,0.11736 -0.55837,0.22049 -0.860929,0.30851 -0.302559,0.088 -0.620732,0.16095 -0.954464,0.21962 -0.333731,0.0587 -0.683094,0.10296 -1.047998,0.1323 -0.364904,0.0293 -0.745455,0.0439 -1.141532,0.0439 -0.337399,0 -0.670909,-0.0146 -1.000973,-0.0439 -0.330064,-0.0293 -0.656539,-0.0736 -0.979268,-0.1323 -0.322729,-0.0587 -0.641653,-0.1316 -0.957048,-0.21962 -0.315394,-0.088 -0.627283,-0.19115 -0.935343,-0.30851 -0.30806,-0.12469 -0.607613,-0.26276 -0.89917,-0.41496 -0.291557,-0.1522 -0.575024,-0.31846 -0.850077,-0.49816 -0.275054,-0.1797 -0.541918,-0.37312 -0.800468,-0.58033 -0.25855,-0.2072 -0.508812,-0.42829 -0.750859,-0.66301 -0.234712,-0.24204 -0.458569,-0.49784 -0.671277,-0.76739 -0.212708,-0.26955 -0.414427,-0.5525 -0.605131,-0.84956 -0.190703,-0.29706 -0.370285,-0.6082 -0.538985,-0.93276 -0.168699,-0.32456 -0.326144,-0.66286 -0.472839,-1.01493 -0.139361,-0.3594 -0.261349,-0.73315 -0.365869,-1.12189 -0.104521,-0.38874 -0.191803,-0.79218 -0.261483,-1.21026 -0.06968,-0.41809 -0.12174,-0.8507 -0.15658,-1.29812 -0.03484,-0.44742 -0.05271,-0.90972 -0.05271,-1.38647 0,-0.4841 0.01862,-0.95193 0.05529,-1.40302 0.03667,-0.45109 0.0915,-0.88572 0.164848,-1.3038 0.07335,-0.41808 0.165414,-0.8195 0.275435,-1.20457 0.110022,-0.38508 0.238295,-0.75381 0.38499,-1.10588 0.117826,-0.27493 0.248086,-0.5319 0.378789,-0.78858 z"
         style="font-size:44.0086px;font-family:Arial;-inkscape-font-specification:'Arial, Normal';display:inline;fill:#e1251b;stroke:#ffffff;stroke-width:2.64583;stroke-linecap:round;stroke-linejoin:round;stroke-miterlimit:4.6;paint-order:stroke fill markers"
         id="path98" />
      <path
         d="m 67.542756,112.72589 c -0.08977,-0.13471 -0.172387,-0.27189 -0.267684,-0.40462 -0.198039,-0.28606 -0.409326,-0.56324 -0.633036,-0.83096 -0.223711,-0.26772 -0.460136,-0.52628 -0.709518,-0.77566 -0.249382,-0.24939 -0.511462,-0.48933 -0.786515,-0.72037 -0.275054,-0.23105 -0.563305,-0.45289 -0.86403,-0.6656 -0.29339,-0.22004 -0.598478,-0.42804 -0.915706,-0.62425 -0.317229,-0.1962 -0.646471,-0.38057 -0.987537,-0.55294 -0.341066,-0.17236 -0.693946,-0.33309 -1.05885,-0.48162 -0.364904,-0.14853 -0.741938,-0.2851 -1.130681,-0.40979 -0.388742,-0.13203 -0.787396,-0.24773 -1.196309,-0.34675 -0.408913,-0.099 -0.827687,-0.18152 -1.256771,-0.24753 -0.429083,-0.066 -0.868495,-0.11531 -1.317749,-0.14831 -0.449254,-0.033 -0.908269,-0.0496 -1.377693,-0.0496 -0.506099,0 -1.008638,0.0229 -1.507402,0.0687 -0.498764,0.0458 -0.993752,0.1145 -1.485181,0.20618 -0.491429,0.0917 -0.979382,0.20664 -1.463476,0.34417 -0.484094,0.13753 -0.964497,0.29774 -1.441256,0.48111 -0.469424,0.18337 -0.926189,0.3871 -1.369942,0.61081 -0.443753,0.22371 -0.874346,0.46769 -1.292428,0.73174 -0.418081,0.26405 -0.823537,0.54827 -1.215946,0.85266 -0.39241,0.30439 -0.772211,0.62885 -1.138949,0.97359 -0.179701,0.17236 -0.355074,0.34981 -0.526066,0.53226 -0.170991,0.18246 -0.337429,0.36971 -0.499711,0.56224 -0.324563,0.38508 -0.631668,0.79053 -0.921391,1.21595 -0.289723,0.42542 -0.562121,0.87111 -0.817004,1.33687 -0.120906,0.22093 -0.224898,0.46142 -0.337964,0.69143 0.0773,0.0287 0.124903,0.0474 0.208256,0.078 0.155517,0.0542 0.43038,0.15547 0.612366,0.22324 0.181991,0.0712 0.532878,0.19975 0.77773,0.28784 0.244862,0.0881 0.595231,0.2206 0.777214,0.28836 0.344114,0.12874 0.549291,0.20669 1.05885,0.38964 0.165448,0.061 0.327923,0.12156 0.364319,0.13849 0.03637,0.0136 0.201669,0.075 0.363802,0.13591 0.144265,0.0516 0.513635,0.19013 0.771012,0.28422 0.04016,-0.0789 0.0749,-0.16522 0.116272,-0.24236 0.176034,-0.32823 0.363168,-0.64139 0.561206,-0.93845 0.198039,-0.29706 0.406792,-0.57851 0.626835,-0.84439 0.220043,-0.26589 0.450934,-0.51615 0.692981,-0.75086 0.249382,-0.23471 0.506444,-0.45378 0.770496,-0.65732 0.264051,-0.20354 0.535183,-0.39143 0.813904,-0.56379 0.27872,-0.17237 0.564955,-0.32907 0.858345,-0.47026 0.29339,-0.14119 0.594211,-0.2667 0.902271,-0.37672 0.308059,-0.11736 0.616664,-0.21998 0.926558,-0.30799 0.309894,-0.088 0.621032,-0.16147 0.93276,-0.22014 0.311727,-0.0587 0.624366,-0.10296 0.937927,-0.1323 0.313561,-0.0293 0.628217,-0.0439 0.943612,-0.0439 0.308059,0 0.608363,0.0111 0.901753,0.0331 0.293391,0.022 0.579625,0.0552 0.858346,0.0992 0.278721,0.044 0.549852,0.0988 0.813904,0.16485 0.264051,0.066 0.521113,0.14298 0.770495,0.23099 0.256717,0.088 0.504961,0.1836 0.745174,0.28629 0.240214,0.10269 0.472372,0.21234 0.696082,0.3297 0.22371,0.11735 0.439265,0.24211 0.646472,0.37413 0.207207,0.13203 0.406159,0.27137 0.596863,0.41807 0.190704,0.14669 0.373053,0.29987 0.547253,0.4594 0.174201,0.15953 0.339947,0.32579 0.497644,0.49816 0.107202,0.11717 0.205316,0.24121 0.304891,0.36432 0.118165,-0.0434 0.449957,-0.16651 0.551905,-0.20361 0.244859,-0.0881 0.612273,-0.22001 0.810803,-0.29455 0.20184,-0.0745 0.767582,-0.2845 1.257287,-0.46406 0.493019,-0.18295 1.058754,-0.38952 1.257288,-0.46405 0.201838,-0.0746 0.595691,-0.22032 0.876949,-0.32195 0.164994,-0.0616 0.247125,-0.0917 0.36897,-0.13694 z"
         style="fill:#e1251b;fill-opacity:1;stroke:#ffffff;stroke-width:3.175;stroke-linecap:round;stroke-linejoin:round;paint-order:stroke markers fill"
         id="path96" />
      <path
         d="m 50.52364,92.373129 v 5.17e-4 c -0.0071,0.0071 -0.08257,0.01722 -0.175184,0.02739 -0.203491,0.02202 -0.516317,0.0792 -0.806669,0.143143 -0.290351,0.06395 -0.558156,0.134476 -0.67231,0.181901 -0.03966,0.02033 -0.291331,0.111847 -0.556038,0.206706 -0.264704,0.09824 -0.612286,0.226857 -0.777731,0.287838 -0.16213,0.06098 -0.721255,0.26762 -1.240751,0.457336 -0.51948,0.189716 -0.999397,0.366156 -1.065568,0.393258 -0.06942,0.02711 -0.181863,0.07085 -0.248047,0.09457 -0.06942,0.0271 -0.416962,0.156223 -0.771012,0.288354 -0.354047,0.128736 -0.966059,0.352257 -1.356506,0.494544 -0.390441,0.142287 -0.823967,0.301323 -0.959632,0.355534 -0.135661,0.0542 -0.790648,0.298158 -1.455725,0.542085 -0.66508,0.243921 -1.409824,0.518304 -1.654679,0.609782 -0.244857,0.09147 -0.721349,0.267681 -1.05885,0.389641 -0.337502,0.125347 -1.839695,0.681013 -3.341915,1.236617 -1.502219,0.555596 -3.087044,1.14147 -3.523816,1.300695 -0.436768,0.162613 -0.847152,0.315284 -0.910022,0.338998 -0.0628,0.02711 -0.456729,0.17259 -0.876949,0.325042 -0.416909,0.14907 -0.814085,0.29483 -0.876949,0.32194 -0.06282,0.027 -0.492982,0.18615 -0.952914,0.35554 -0.456613,0.166 -1.200852,0.44068 -1.654162,0.60668 -1.3103,0.48446 -1.886031,0.6979 -3.530534,1.30431 -0.66012,0.24392 -1.053766,0.39443 -1.317232,0.5147 -0.131734,0.0601 -0.23111,0.11264 -0.31471,0.16536 -0.0836,0.0527 -0.151688,0.10594 -0.221175,0.16692 -0.09678,0.0847 -0.182331,0.1669 -0.258382,0.25011 -0.07605,0.0832 -0.142703,0.1672 -0.202055,0.25528 -0.05935,0.0881 -0.111444,0.18027 -0.15813,0.27957 -0.04669,0.0993 -0.08804,0.2061 -0.12609,0.32298 -0.05294,0.15753 -0.07895,0.23695 -0.09302,0.3297 -0.01406,0.0927 -0.01581,0.19871 -0.01912,0.40876 -0.0034,0.14567 -0.0016,0.25658 0.0067,0.35398 0.0083,0.0974 0.02291,0.18138 0.04599,0.27285 0.05129,0.19396 0.124806,0.37876 0.217041,0.55191 0.09224,0.17315 0.203338,0.33461 0.330729,0.48007 0.127391,0.14546 0.271124,0.27513 0.427881,0.38602 0.156757,0.1109 0.326612,0.20289 0.506946,0.27234 0.135668,0.0542 0.300932,0.11839 0.363802,0.14211 0.105886,0.044 0.4697,0.17632 1.439188,0.52865 0.201849,0.0746 0.394067,0.14585 0.430465,0.16278 0.03639,0.017 0.244637,0.0947 0.463021,0.1726 0.218385,0.0746 0.427137,0.15255 0.463537,0.1695 0.03638,0.017 0.201673,0.0778 0.363802,0.13539 0.165447,0.061 0.453523,0.16604 0.645439,0.23719 0.191917,0.0712 0.625017,0.2338 0.965833,0.35916 l 0.622184,0.23047 -0.07286,0.11834 c -0.195223,0.33116 -0.374369,0.6534 -0.540535,0.97307 -0.166167,0.31967 -0.319294,0.63678 -0.461988,0.95756 -0.142694,0.32079 -0.27517,0.64529 -0.399975,0.97979 -0.124805,0.33449 -0.242,0.67893 -0.354501,1.03973 -0.07944,0.25069 -0.367404,1.4161 -0.400492,1.6092 -0.0068,0.0474 -0.03608,0.21337 -0.06253,0.37259 -0.08278,0.45736 -0.152529,0.98936 -0.208773,1.62626 -0.01,0.0847 -0.02277,0.78614 -0.02946,1.55856 -0.02979,2.77462 -0.04664,3.6081 -0.05994,3.6928 -0.01,0.0474 -0.02614,0.18936 -0.03927,0.31471 -0.01,0.12535 -0.02696,0.25786 -0.03359,0.28835 -0.0035,0.0305 -0.01946,0.13199 -0.02946,0.22686 -0.0132,0.0915 -0.03664,0.24363 -0.05323,0.33848 -0.01654,0.0915 -0.03609,0.20682 -0.04599,0.25425 -0.0068,0.0474 -0.05322,0.26785 -0.102836,0.49144 -0.116638,0.53189 -0.262536,1.07841 -0.436665,1.63608 -0.17413,0.55766 -0.376303,1.12632 -0.604615,1.70119 -0.228311,0.57486 -0.483042,1.15593 -0.762227,1.73942 -0.279185,0.5835 -0.582754,1.16932 -0.909505,1.75287 -0.198527,0.35064 -0.379723,0.65816 -0.588595,0.9927 -0.208871,0.33455 -0.445611,0.69644 -0.754993,1.15549 -0.125733,0.18463 -0.209264,0.33346 -0.263033,0.47955 -0.02688,0.0731 -0.0464,0.14554 -0.05994,0.22118 -0.01355,0.0756 -0.02098,0.15442 -0.02429,0.24081 -0.0066,0.17277 -8.33e-4,0.30164 0.02481,0.4253 0.02564,0.12365 0.07085,0.24236 0.14366,0.39481 0.06783,0.14398 0.163349,0.27994 0.275435,0.39894 0.112087,0.119 0.241059,0.22055 0.376722,0.29507 0.08769,0.0474 0.342234,0.13157 0.709517,0.23616 0.367283,0.1046 0.847238,0.22976 1.384928,0.36019 0.109196,0.0271 0.221576,0.0542 0.248047,0.061 0.15882,0.044 0.632159,0.16646 0.744658,0.19017 0.07282,0.017 0.221528,0.0538 0.330729,0.0842 0.109186,0.0305 0.221573,0.0609 0.248047,0.0677 0.02654,0.007 0.413715,0.10546 0.860412,0.22066 0.446703,0.11179 0.847059,0.21307 0.886768,0.22324 0.04297,0.0102 0.16201,0.0405 0.264583,0.0677 0.105877,0.0305 0.308134,0.0816 0.453719,0.11886 0.145595,0.0339 0.35383,0.0879 0.463021,0.11834 0.144762,0.0398 0.288392,0.0624 0.428914,0.0682 0.140523,0.006 0.277854,-0.005 0.409795,-0.0326 0.13194,-0.0275 0.258739,-0.0715 0.377754,-0.13177 0.119016,-0.0602 0.230533,-0.13662 0.33228,-0.22893 0.06618,-0.0593 0.156752,-0.16277 0.232027,-0.2589 0.07528,-0.0961 0.135181,-0.185 0.138493,-0.21549 0.0035,-0.0102 0.02964,-0.0778 0.05943,-0.14883 0.03311,-0.0712 0.06289,-0.17294 0.07286,-0.22376 0.01,-0.0508 0.03964,-0.21009 0.06615,-0.35915 0.02979,-0.14568 0.05942,-0.32165 0.06925,-0.38602 0.01,-0.0644 0.0231,-0.15617 0.03307,-0.20361 0.02654,-0.14905 0.14262,-0.99241 0.159163,-1.17873 0.02312,-0.19987 0.04612,-0.43723 0.06925,-0.67438 0.01654,-0.18633 0.04964,-0.68775 0.06615,-1.0604 0.01654,-0.34218 0.01995,-1.99195 0.0036,-2.28668 -0.04629,-0.86388 -0.05613,-1.02618 -0.06925,-1.10071 -0.0068,-0.0474 -0.02309,-0.21365 -0.03307,-0.36949 -0.0132,-0.15923 -0.02684,-0.31517 -0.03669,-0.35243 -0.0068,-0.0372 -0.02,-0.15232 -0.02997,-0.25735 -0.01317,-0.10502 -0.02651,-0.22698 -0.03307,-0.2744 -0.0068,-0.0474 -0.02291,-0.16277 -0.03617,-0.25425 -0.01,-0.0948 -0.0265,-0.19994 -0.03307,-0.2372 -0.0068,-0.0338 -0.02001,-0.12516 -0.02997,-0.20308 -0.03641,-0.25747 -0.102258,-0.63692 -0.234611,-1.30432 -0.06286,-0.31506 -0.145995,-0.68928 -0.236161,-1.0666 -0.09017,-0.37731 -0.187439,-0.75777 -0.280087,-1.08469 -0.132351,-0.47769 -0.460094,-1.50423 -0.539501,-1.69395 -0.02313,-0.0576 -0.125631,-0.31481 -0.231511,-0.57568 l -0.188619,-0.47439 0.01964,-1.76165 c 0.01,-0.9689 0.02331,-1.80926 0.02997,-1.86345 0.0068,-0.0576 0.02291,-0.19998 0.03617,-0.32194 0.01319,-0.12195 0.03662,-0.30455 0.05323,-0.40618 0.01654,-0.10164 0.03612,-0.2474 0.04599,-0.32194 0.0298,-0.22867 0.09794,-0.566 0.181901,-0.92088 0.08396,-0.35487 0.183714,-0.7275 0.278019,-1.02732 0.107538,-0.33963 0.230413,-0.67817 0.365869,-1.01235 0.135457,-0.33417 0.283731,-0.66374 0.443384,-0.98495 0.159653,-0.3212 0.330437,-0.6341 0.510563,-0.93482 0.180126,-0.30073 0.369498,-0.58925 0.566374,-0.86197 0.16048,-0.2202 0.296446,-0.39649 0.451135,-0.57774 0.154689,-0.18125 0.328242,-0.3677 0.564823,-0.60823 0.194395,-0.20073 0.38774,-0.38821 0.582911,-0.56586 0.19517,-0.17765 0.392335,-0.34532 0.594795,-0.50539 0.202461,-0.16008 0.410054,-0.31295 0.626319,-0.46096 0.216264,-0.148 0.440896,-0.29109 0.677478,-0.43253 0.186951,-0.11095 0.350385,-0.20444 0.528133,-0.29766 0.177748,-0.0932 0.369681,-0.18612 0.614949,-0.29559 0.490538,-0.21893 1.192839,-0.50433 2.413807,-0.99218 0.420222,-0.16937 1.016224,-0.40692 1.32395,-0.53227 0.311031,-0.12535 0.88338,-0.35525 1.273824,-0.51108 0.390441,-0.15924 0.740818,-0.2983 0.777213,-0.31523 0.03641,-0.017 0.268292,-0.11185 0.513147,-0.2067 0.244858,-0.0982 0.68499,-0.27446 0.976168,-0.38964 1.369867,-0.55221 2.167044,-0.87402 2.729549,-1.09761 0.337503,-0.13551 0.642116,-0.25747 0.678512,-0.2744 0.03637,-0.017 0.280997,-0.11873 0.545703,-0.22376 0.641922,-0.25408 1.056003,-0.41657 1.175122,-0.47077 0.0563,-0.0204 0.224824,-0.0915 0.380339,-0.15245 0.155516,-0.0576 0.327396,-0.12896 0.380338,-0.15606 0.0563,-0.0237 0.205509,-0.0844 0.331246,-0.13178 0.244863,-0.0949 0.714396,-0.28471 1.769918,-0.71158 0.565815,-0.22868 0.874468,-0.34981 1.094507,-0.40359 0.110019,-0.0269 0.19788,-0.0369 0.284737,-0.0351 0.08686,0.002 0.172654,0.0153 0.278536,0.0357 0.0943,0.0178 0.180674,0.0398 0.260966,0.0672 0.08029,0.0274 0.154789,0.0601 0.225309,0.0992 0.07052,0.0392 0.137067,0.0848 0.202055,0.13798 0.06499,0.0532 0.128024,0.114 0.191719,0.18345 0.08148,0.0881 0.151075,0.18323 0.208773,0.28319 0.0577,0.1 0.103647,0.20481 0.137976,0.31264 0.03433,0.10783 0.05684,0.21851 0.06821,0.33021 0.01137,0.11171 0.01168,0.22431 5.17e-4,0.3359 -0.01117,0.11158 -0.03337,0.22222 -0.06666,0.32969 -0.0333,0.10747 -0.0778,0.21174 -0.132808,0.3111 -0.05501,0.0994 -0.120577,0.19387 -0.196887,0.28111 -0.07631,0.0872 -0.163252,0.16709 -0.260449,0.23823 -0.08931,0.0678 -0.430004,0.22703 -0.757577,0.35915 -0.64854,0.25747 -0.688376,0.27468 -0.810803,0.33228 -0.04628,0.0204 -0.178545,0.0744 -0.297656,0.11834 -0.291189,0.1118 -1.654642,0.65749 -1.737362,0.69815 -0.03639,0.017 -0.205085,0.0847 -0.37052,0.15245 -0.168756,0.0644 -0.446925,0.17282 -0.612366,0.23719 -0.168748,0.0678 -0.337221,0.13552 -0.37362,0.15245 -0.03641,0.017 -0.370758,0.1522 -0.744658,0.30127 -0.373897,0.14906 -0.982599,0.39612 -1.356506,0.54519 -0.373906,0.15245 -0.790891,0.3189 -0.926559,0.3731 -0.486407,0.18972 -2.964936,1.18919 -3.067513,1.23662 -0.0563,0.0271 -0.119163,0.0506 -0.139009,0.0506 -0.01983,0 -0.06248,0.0168 -0.0956,0.0336 -0.02981,0.0204 -0.377468,0.1625 -0.767911,0.31833 -1.694137,0.67757 -3.430978,1.37912 -3.920691,1.57561 -0.199359,0.0822 -0.40076,0.17523 -0.600997,0.2775 -0.200238,0.10227 -0.399573,0.2139 -0.59583,0.33332 -0.196256,0.11942 -0.389292,0.24673 -0.576709,0.38034 -0.187416,0.1336 -0.368886,0.27323 -0.542602,0.41806 -0.215074,0.17955 -0.420681,0.36362 -0.567924,0.50591 -0.147243,0.14229 -0.236167,0.24277 -0.219625,0.25632 0.01654,0.0102 0.08582,0.0408 0.158647,0.0646 0.07281,0.0238 0.162042,0.0543 0.198437,0.0713 0.0364,0.017 0.446782,0.1691 0.910022,0.33849 1.469137,0.54204 2.855659,1.05051 3.027722,1.11827 0.155519,0.061 1.637957,0.60598 2.035018,0.74828 0.09926,0.0372 0.211655,0.0782 0.248047,0.0951 0.03639,0.017 0.244634,0.0946 0.463021,0.1726 0.218387,0.0779 0.45028,0.16284 0.513147,0.18655 0.134558,0.0517 0.347398,0.13069 0.552421,0.20671 0.113066,-0.23001 0.217058,-0.4705 0.337964,-0.69143 0.254883,-0.46576 0.527281,-0.91145 0.817004,-1.33687 0.289723,-0.42542 0.596828,-0.83087 0.921391,-1.21595 0.162282,-0.19253 0.32872,-0.37978 0.499711,-0.56224 0.170992,-0.18245 0.346365,-0.3599 0.526066,-0.53226 0.366738,-0.34474 0.746539,-0.6692 1.138949,-0.97359 0.392409,-0.30439 0.797865,-0.58861 1.215946,-0.85266 0.418082,-0.26405 0.848675,-0.50803 1.292428,-0.73174 0.443753,-0.22371 0.900518,-0.42744 1.369942,-0.61081 0.476759,-0.18337 0.957162,-0.34358 1.441256,-0.48111 0.484094,-0.13753 0.972047,-0.25248 1.463476,-0.34417 0.491429,-0.0917 0.986417,-0.16034 1.485181,-0.20618 0.498764,-0.0459 1.001303,-0.0687 1.507402,-0.0687 0.469424,0 0.928439,0.0166 1.377693,0.0496 0.449254,0.033 0.888666,0.0823 1.317749,0.14831 0.429084,0.066 0.847858,0.14851 1.256771,0.24753 0.408913,0.099 0.807567,0.21472 1.196309,0.34675 0.388743,0.12469 0.765777,0.26126 1.130681,0.40979 0.364904,0.14853 0.717784,0.30926 1.05885,0.48162 0.341066,0.17237 0.670308,0.35674 0.987537,0.55294 0.317228,0.19621 0.622316,0.40421 0.915706,0.62425 0.300725,0.21271 0.588976,0.43455 0.86403,0.6656 0.275053,0.23104 0.537133,0.47098 0.786515,0.72037 0.249382,0.24938 0.485807,0.50794 0.709518,0.77566 0.22371,0.26772 0.434997,0.5449 0.633036,0.83096 0.0953,0.13273 0.177915,0.26991 0.267684,0.40462 0.08586,-0.0318 0.233945,-0.0868 0.259932,-0.0966 0.06283,-0.0238 0.300859,-0.11196 0.529167,-0.19327 0.228316,-0.0847 0.897031,-0.3286 1.489315,-0.54881 0.592279,-0.21682 1.200983,-0.44056 1.356506,-0.49816 0.155515,-0.0576 0.310868,-0.11536 0.347266,-0.13229 0.03635,-0.0136 0.446779,-0.16599 0.910022,-0.33538 0.463235,-0.17277 1.022361,-0.37603 1.240751,-0.45734 0.218375,-0.0779 0.450283,-0.16232 0.513147,-0.18603 0.231617,-0.0813 0.57874,-0.21371 0.644922,-0.24081 0.03637,-0.017 0.281513,-0.10461 0.54622,-0.19947 0.264712,-0.0948 0.509299,-0.18304 0.545703,-0.19999 0.03637,-0.017 0.608749,-0.23047 1.273824,-0.47439 0.665081,-0.24393 1.356937,-0.49787 1.538924,-0.56224 0.181985,-0.0678 0.449711,-0.16593 0.595312,-0.22014 0.519481,-0.18633 1.823171,-0.67123 1.995227,-0.73898 0.109193,-0.0432 0.218076,-0.097 0.323495,-0.16019 0.105418,-0.0631 0.207797,-0.13548 0.304374,-0.21446 0.09658,-0.079 0.187081,-0.1646 0.269751,-0.25528 0.08267,-0.0907 0.15748,-0.18649 0.221175,-0.28474 0.102573,-0.15244 0.237891,-0.42671 0.267684,-0.53175 0.0032,-0.0204 0.03332,-0.1185 0.06305,-0.22014 0.03637,-0.12534 0.05615,-0.3218 0.05943,-0.60978 0.0016,-0.17786 -6.17e-4,-0.29398 -0.01137,-0.39223 -0.01075,-0.0982 -0.03009,-0.17853 -0.06149,-0.28525 -0.05791,-0.19056 -0.135502,-0.37118 -0.230993,-0.53899 -0.09549,-0.1678 -0.20892,-0.32318 -0.336931,-0.4625 -0.12801,-0.13932 -0.270865,-0.26281 -0.42633,-0.36794 -0.155465,-0.10512 -0.323409,-0.19161 -0.501261,-0.25683 -0.119118,-0.0406 -0.257936,-0.0985 -0.314193,-0.11885 -0.05296,-0.0238 -0.569104,-0.2132 -1.141533,-0.42323 -0.572432,-0.21005 -1.072067,-0.39287 -1.108459,-0.4098 -0.03639,-0.017 -0.238549,-0.0916 -0.447001,-0.1695 -0.744496,-0.27102 -1.012481,-0.36932 -1.158069,-0.42013 -0.08278,-0.0304 -0.178575,-0.0642 -0.214974,-0.0811 -0.0364,-0.017 -0.407112,-0.15606 -0.82734,-0.30851 -0.416911,-0.15245 -0.79043,-0.28795 -0.826823,-0.30489 -0.03636,-0.017 -0.281507,-0.10822 -0.546219,-0.20308 -0.26471,-0.0948 -0.558991,-0.20355 -0.65164,-0.24082 -0.09596,-0.0339 -0.255128,-0.0948 -0.347783,-0.12867 -0.09596,-0.0372 -0.390031,-0.14544 -0.65474,-0.2403 -0.456626,-0.165996 -0.70154,-0.257512 -0.959631,-0.359145 -0.06284,-0.02371 -0.241879,-0.08843 -0.397392,-0.142627 -0.155512,-0.0576 -0.423246,-0.155774 -0.595313,-0.220142 -0.172058,-0.06437 -0.694824,-0.257171 -1.158069,-0.429948 -1.068757,-0.392983 -1.241094,-0.454345 -1.60507,-0.593245 -0.162135,-0.06437 -0.5064,-0.18965 -0.761193,-0.28112 -0.972763,-0.355724 -2.153535,-0.789099 -2.216403,-0.819588 -0.03638,-0.01694 -0.179049,-0.06804 -0.314709,-0.118856 -0.254773,-0.09147 -1.54823,-0.569071 -1.753381,-0.646989 -0.122427,-0.04404 -0.582774,-0.213407 -1.323951,-0.487825 -0.489715,-0.179552 -2.368933,-0.873949 -3.722253,-1.378727 -0.47317,-0.176165 -0.873635,-0.321887 -0.893486,-0.328663 -0.01652,-0.0071 -0.07598,-0.02722 -0.125573,-0.04754 -0.05296,-0.02371 -0.0991,-0.04031 -0.109038,-0.04031 -0.0071,0 -0.605516,-0.220191 -1.330151,-0.487825 -0.721351,-0.267643 -1.505848,-0.559424 -1.744079,-0.647506 -0.436771,-0.162617 -0.789164,-0.28286 -1.089856,-0.37052 -0.300693,-0.08766 -0.549833,-0.142482 -0.779798,-0.174666 -0.09926,-0.01355 -0.218256,-0.03043 -0.264583,-0.03721 -0.09927,-0.01694 -1.346679,-0.04093 -1.363224,-0.02739 z"
         style="fill:#333333;stroke:#ffffff;stroke-width:3.175;stroke-linecap:round;stroke-linejoin:round;paint-order:stroke markers fill"
         id="path94" />
    </g>
    <path
       d="m 104.69036,92.427906 c -1.4605,0 -2.87869,0.264584 -4.25452,0.79375 -1.354667,0.529167 -2.561087,1.290817 -3.619419,2.285649 -1.037165,0.994832 -1.872858,2.222481 -2.507857,3.682979 -0.634999,1.460496 -0.952914,3.111686 -0.952914,4.953186 0,1.86267 0.296686,3.52421 0.889352,4.98471 0.613833,1.43933 1.428813,2.66698 2.444812,3.68298 1.015999,0.99483 2.190317,1.757 3.523816,2.28616 1.35467,0.52917 2.7625,0.79375 4.223,0.79375 0.889,0 1.70398,-0.0953 2.44481,-0.28577 0.74083,-0.1905 1.39686,-0.44472 1.96836,-0.76222 0.57149,-0.3175 1.0582,-0.66649 1.46037,-1.04749 0.42333,-0.40216 0.76196,-0.81483 1.01596,-1.23816 l 0.28577,2.85719 h 3.07992 V 104.01635 H 103.6744 v 3.33364 h 7.42952 c -0.0423,0.48684 -0.19042,1.02688 -0.44442,1.61954 -0.254,0.5715 -0.63508,1.11103 -1.14308,1.61902 -0.508,0.508 -1.16402,0.9419 -1.96835,1.30173 -0.78317,0.33867 -1.74623,0.50798 -2.88923,0.50798 -0.97367,0 -1.90515,-0.16931 -2.79415,-0.50798 -0.889,-0.35983 -1.68275,-0.87812 -2.381248,-1.55546 -0.677333,-0.6985 -1.227729,-1.55593 -1.651062,-2.57193 -0.402166,-1.03717 -0.603064,-2.24359 -0.603064,-3.61942 0,-1.397 0.21177,-2.60342 0.635103,-3.61942 0.4445,-1.037163 1.016125,-1.8946 1.714624,-2.571933 0.719667,-0.677333 1.523777,-1.174916 2.412777,-1.492415 0.88899,-0.338667 1.78837,-0.50798 2.69854,-0.50798 0.889,0 1.69362,0.127373 2.41329,0.381372 0.74083,0.254 1.3865,0.592626 1.93683,1.015959 0.55033,0.423333 1.00546,0.920399 1.36529,1.491899 0.381,0.571499 0.6663,1.175228 0.8568,1.810228 l 3.58789,-1.365294 c -0.29633,-0.931333 -0.74058,-1.809999 -1.33325,-2.635498 -0.5715,-0.8255 -1.29121,-1.545209 -2.15904,-2.159042 -0.84667,-0.634999 -1.83096,-1.132582 -2.95279,-1.492415 -1.12183,-0.381 -2.36036,-0.571025 -3.71502,-0.571025 z m 63.5,0 c -1.05833,0 -2.05298,0.179669 -2.98431,0.539502 -0.91017,0.359833 -1.71479,0.857416 -2.41329,1.492416 -0.6985,0.613832 -1.24838,1.343898 -1.65055,2.190564 -0.40217,0.825499 -0.60358,1.714521 -0.60358,2.66702 0,1.693332 0.51881,3.079942 1.55598,4.159432 1.05833,1.0795 2.44442,1.79921 4.15892,2.15905 l 3.175,0.66662 c 0.97366,0.21167 1.7146,0.59275 2.2226,1.14308 0.52917,0.52917 0.79375,1.16397 0.79375,1.9048 0,0.889 -0.34898,1.62993 -1.04748,2.2226 -0.67733,0.59267 -1.69373,0.88884 -3.04839,0.88884 -0.80434,0 -1.51317,-0.12686 -2.12701,-0.38086 -0.61383,-0.254 -1.143,-0.58227 -1.5875,-0.98444 -0.42333,-0.42333 -0.7516,-0.89968 -0.98443,-1.42885 -0.23284,-0.55033 -0.38092,-1.12144 -0.44442,-1.71411 l -3.55585,1.01596 c 0.0847,0.80433 0.31766,1.61932 0.69866,2.44481 0.381,0.8255 0.92052,1.5768 1.61902,2.25413 0.71967,0.65617 1.59834,1.19569 2.6355,1.61902 1.05833,0.40217 2.30669,0.60358 3.74603,0.60358 1.29116,0 2.42406,-0.19054 3.39772,-0.57154 0.99483,-0.381 1.83053,-0.88894 2.50786,-1.52394 0.67733,-0.635 1.18527,-1.36558 1.52394,-2.19108 0.35983,-0.8255 0.54002,-1.67206 0.54002,-2.53989 0,-1.5875 -0.51882,-2.96323 -1.55598,-4.1274 -1.03717,-1.16417 -2.55063,-1.94756 -4.54029,-2.34973 l -3.23805,-0.66662 c -0.889,-0.1905 -1.55589,-0.53948 -2.00039,-1.04748 -0.42334,-0.508 -0.63511,-1.122086 -0.63511,-1.841752 0,-0.423333 0.0953,-0.825645 0.28577,-1.206645 0.1905,-0.402166 0.45509,-0.751148 0.79375,-1.047481 0.33867,-0.296333 0.74098,-0.529333 1.20665,-0.698666 0.48683,-0.190499 1.016,-0.28577 1.5875,-0.28577 0.762,0 1.40767,0.116499 1.93683,0.349332 0.52917,0.232833 0.96306,0.518646 1.30173,0.857312 0.35983,0.338667 0.62442,0.71975 0.79375,1.143083 0.1905,0.402166 0.31736,0.772377 0.38086,1.111043 l 3.42873,-1.07952 c -0.127,-0.635 -0.35949,-1.291023 -0.69815,-1.968356 -0.33867,-0.677332 -0.82589,-1.291415 -1.46089,-1.841748 -0.61384,-0.571499 -1.38636,-1.036981 -2.31769,-1.396814 -0.93133,-0.359833 -2.06371,-0.539502 -3.39721,-0.539502 z m -42.41808,0.47594 -8.76278,22.510774 h 4.03232 l 2.09548,-5.65134 h 9.525 l 2.127,5.65134 h 4.15943 l -8.76277,-22.510774 z m 16.41502,0 v 22.510774 h 3.8101 v -8.79482 h 4.54029 c 1.0795,0 2.05292,-0.16931 2.92075,-0.50797 0.889,-0.33867 1.65117,-0.81502 2.28617,-1.42886 0.635,-0.61383 1.12171,-1.33354 1.46037,-2.15904 0.33867,-0.84666 0.50798,-1.76727 0.50798,-2.762104 0,-0.973666 -0.16931,-1.883917 -0.50798,-2.730583 -0.33866,-0.846666 -0.82537,-1.566375 -1.46037,-2.159041 -0.635,-0.613833 -1.39717,-1.089671 -2.28617,-1.428337 -0.86783,-0.359833 -1.84125,-0.540019 -2.92075,-0.540019 z m 3.8101,3.365686 h 3.96875 c 1.2065,0 2.14833,0.317398 2.82567,0.952397 0.6985,0.634999 1.04748,1.492437 1.04748,2.571936 0,1.079495 -0.34898,1.926065 -1.04748,2.539895 -0.67734,0.61383 -1.61917,0.92088 -2.82567,0.92088 h -3.96875 z m -18.0976,0.761711 3.42873,9.207707 h -6.85798 z"
       style="font-weight:500;font-size:31.75px;font-family:'CircularXX TT';-inkscape-font-specification:'CircularXX TT Medium';fill:#333333;stroke-width:2;stroke-linecap:round;stroke-linejoin:round;stroke-miterlimit:4.6;paint-order:stroke markers fill"
       id="path4" />
    <path
       d="m 95.684191,121.10781 c -0.204141,0 -0.378609,0.0722 -0.523483,0.21704 -0.144874,0.14487 -0.217558,0.32258 -0.217558,0.5333 10e-7,0.21073 0.07268,0.38894 0.217558,0.53382 0.144874,0.13829 0.319342,0.20722 0.523483,0.20722 0.210725,0 0.388426,-0.0689 0.5333,-0.20722 0.144874,-0.14488 0.217558,-0.32309 0.217558,-0.53382 0,-0.21072 -0.07268,-0.38843 -0.217558,-0.5333 -0.144874,-0.14487 -0.322575,-0.21704 -0.5333,-0.21704 z m 58.802099,0 c -0.20414,0 -0.37861,0.0722 -0.52349,0.21704 -0.14487,0.14487 -0.21704,0.32258 -0.21704,0.5333 0,0.21073 0.0722,0.38894 0.21704,0.53382 0.14488,0.13829 0.31935,0.20722 0.52349,0.20722 0.21072,0 0.38894,-0.0689 0.53381,-0.20722 0.14488,-0.14488 0.21704,-0.32309 0.21704,-0.53382 0,-0.21072 -0.0722,-0.38843 -0.21704,-0.5333 -0.14487,-0.14487 -0.32309,-0.21704 -0.53381,-0.21704 z m -17.19689,0.0987 v 2.9037 c -0.0395,-0.079 -0.0955,-0.15766 -0.16795,-0.23668 -0.0724,-0.079 -0.16827,-0.1517 -0.2868,-0.21756 -0.11195,-0.0724 -0.24658,-0.12843 -0.40463,-0.16794 -0.15804,-0.0461 -0.34272,-0.0692 -0.55345,-0.0692 -0.33584,0 -0.64495,0.0662 -0.92811,0.19792 -0.28316,0.1317 -0.52708,0.31264 -0.73122,0.54312 -0.19756,0.23048 -0.35211,0.50027 -0.46406,0.80977 -0.11194,0.30292 -0.16794,0.62599 -0.16794,0.96842 0,0.36218 0.056,0.69767 0.16794,1.00717 0.11195,0.3095 0.2665,0.5798 0.46406,0.81029 0.20414,0.22389 0.44806,0.40159 0.73122,0.5333 0.28316,0.12511 0.59925,0.18758 0.94826,0.18758 0.34243,0 0.63537,-0.0722 0.87902,-0.21704 0.24365,-0.14487 0.42135,-0.31934 0.5333,-0.52348 0,0.0988 0.003,0.21401 0.01,0.34571 0.0132,0.13171 0.0266,0.22379 0.0398,0.27647 h 1.09606 c -0.007,-0.0395 -0.0163,-0.14181 -0.0295,-0.30644 -0.0132,-0.16463 -0.0196,-0.35526 -0.0196,-0.57257 v -6.27249 z m -38.049354,2.19263 c -0.250237,0 -0.483938,0.0431 -0.701249,0.12868 -0.210726,0.079 -0.394894,0.19102 -0.552938,0.33589 -0.158044,0.13829 -0.283495,0.30254 -0.375688,0.49351 -0.09219,0.18439 -0.137976,0.38201 -0.137976,0.59273 0,0.33585 0.108251,0.63253 0.325562,0.88935 0.217311,0.25024 0.540379,0.42096 0.968416,0.51315 l 0.711068,0.15813 c 0.19097,0.0395 0.332587,0.10573 0.42478,0.19792 0.09219,0.0922 0.137979,0.20419 0.137979,0.3359 0,0.15146 -0.06247,0.28286 -0.187588,0.39481 -0.118534,0.10536 -0.296235,0.15813 -0.533301,0.15813 -0.309504,0 -0.546438,-0.0824 -0.711068,-0.24702 -0.158044,-0.16463 -0.246895,-0.35578 -0.26665,-0.57309 l -0.997872,0.27699 c 0.01317,0.13829 0.05947,0.29284 0.138493,0.46405 0.07902,0.16463 0.197489,0.32293 0.355533,0.47439 0.158045,0.14487 0.358896,0.26658 0.602548,0.36535 0.243651,0.0988 0.53982,0.1478 0.888834,0.1478 0.302919,0 0.569987,-0.0458 0.800471,-0.13798 0.23048,-0.0922 0.41788,-0.21066 0.56275,-0.35553 0.15146,-0.15146 0.26346,-0.31623 0.3359,-0.49403 0.079,-0.18438 0.11834,-0.36855 0.11834,-0.55294 0,-0.3556 -0.11847,-0.66198 -0.35553,-0.9188 -0.23049,-0.26341 -0.57295,-0.44435 -1.027332,-0.54312 l -0.730705,-0.14831 c -0.151459,-0.0329 -0.269926,-0.0922 -0.355534,-0.17777 -0.08561,-0.0856 -0.128674,-0.19438 -0.128674,-0.32608 0,-0.15146 0.06247,-0.27963 0.187586,-0.38499 0.131703,-0.11195 0.299704,-0.16795 0.503845,-0.16795 0.158044,0 0.289962,0.0264 0.395325,0.0791 0.111948,0.0461 0.200798,0.10533 0.26665,0.17776 0.07244,0.0724 0.125199,0.15108 0.158129,0.23668 0.0329,0.0856 0.0561,0.16153 0.0693,0.22738 l 0.9679,-0.27647 c -0.0198,-0.11853 -0.0661,-0.25368 -0.1385,-0.40514 -0.0658,-0.15805 -0.17138,-0.30613 -0.31626,-0.44442 -0.14487,-0.13829 -0.33227,-0.25352 -0.56275,-0.34572 -0.223898,-0.0988 -0.5039,-0.14831 -0.839744,-0.14831 z m 7.250204,0 c -0.29633,0 -0.56612,0.0431 -0.80977,0.12868 -0.23707,0.0856 -0.44115,0.20084 -0.61237,0.34571 -0.17121,0.14488 -0.30959,0.31288 -0.41496,0.50385 -0.10536,0.19097 -0.16783,0.38807 -0.18758,0.59221 l 1.04696,0.23719 c 0.0263,-0.24365 0.12166,-0.44773 0.28629,-0.61236 0.16463,-0.17122 0.39833,-0.25683 0.70125,-0.25683 0.31609,0 0.54655,0.0727 0.69143,0.21755 0.14487,0.13829 0.21756,0.30953 0.21756,0.51367 0,0.0856 -0.0264,0.16101 -0.0791,0.22686 -0.0461,0.0593 -0.13818,0.0991 -0.27647,0.11885 l -1.23455,0.18759 c -0.20414,0.0329 -0.39529,0.0857 -0.57309,0.15813 -0.1778,0.0724 -0.33287,0.17099 -0.46457,0.2961 -0.12512,0.11854 -0.2269,0.26016 -0.30592,0.42478 -0.0724,0.16463 -0.10853,0.35579 -0.10853,0.5731 0,0.19097 0.0361,0.37513 0.10853,0.55293 0.079,0.17122 0.18778,0.32577 0.32607,0.46406 0.14488,0.1317 0.31611,0.23724 0.51367,0.31626 0.20414,0.079 0.43137,0.11834 0.68161,0.11834 0.38852,0 0.70461,-0.0786 0.94826,-0.23668 0.24365,-0.16463 0.42135,-0.3391 0.5333,-0.52348 0,0.19097 0.006,0.33905 0.0196,0.44441 0.0132,0.0988 0.0229,0.15478 0.0295,0.16795 h 1.06711 c -0.007,-0.0263 -0.02,-0.10549 -0.0398,-0.23719 -0.0132,-0.13829 -0.0196,-0.31599 -0.0196,-0.5333 v -2.39055 c 0,-0.23707 -0.0393,-0.46431 -0.11834,-0.68162 -0.0724,-0.21731 -0.19091,-0.40794 -0.35554,-0.57257 -0.15804,-0.16463 -0.36911,-0.29655 -0.63252,-0.39533 -0.25682,-0.0988 -0.56967,-0.14831 -0.93844,-0.14831 z m 13.29583,0 c -0.29633,0 -0.56664,0.0431 -0.81029,0.12868 -0.23706,0.0856 -0.44115,0.20084 -0.61236,0.34571 -0.17122,0.14488 -0.3096,0.31288 -0.41497,0.50385 -0.10536,0.19097 -0.16783,0.38807 -0.18758,0.59221 l 1.04696,0.23719 c 0.0263,-0.24365 0.12218,-0.44773 0.28681,-0.61236 0.16463,-0.17122 0.39833,-0.25683 0.70125,-0.25683 0.31609,0 0.54655,0.0727 0.69143,0.21755 0.14487,0.13829 0.21704,0.30953 0.21704,0.51367 0,0.0856 -0.0264,0.16101 -0.0791,0.22686 -0.0461,0.0593 -0.13818,0.0991 -0.27647,0.11885 l -1.23455,0.18759 c -0.20414,0.0329 -0.39529,0.0857 -0.57309,0.15813 -0.1778,0.0724 -0.33235,0.17099 -0.46405,0.2961 -0.12512,0.11854 -0.22742,0.26016 -0.30644,0.42478 -0.0724,0.16463 -0.10852,0.35579 -0.10852,0.5731 0,0.19097 0.0361,0.37513 0.10852,0.55293 0.079,0.17122 0.18779,0.32577 0.32608,0.46406 0.14487,0.1317 0.3161,0.23724 0.51366,0.31626 0.20414,0.079 0.43138,0.11834 0.68161,0.11834 0.38853,0 0.70461,-0.0786 0.94826,-0.23668 0.24366,-0.16463 0.42136,-0.3391 0.53331,-0.52348 0,0.19097 0.006,0.33905 0.0196,0.44441 0.0132,0.0988 0.0234,0.15478 0.03,0.16795 h 1.06661 c -0.007,-0.0263 -0.0195,-0.10549 -0.0393,-0.23719 -0.0132,-0.13829 -0.0202,-0.31599 -0.0202,-0.5333 v -2.39055 c 0,-0.23707 -0.0393,-0.46431 -0.11834,-0.68162 -0.0724,-0.21731 -0.19091,-0.40794 -0.35553,-0.57257 -0.15805,-0.16463 -0.36912,-0.29655 -0.63252,-0.39533 -0.25683,-0.0988 -0.56916,-0.14831 -0.93793,-0.14831 z m 5.58054,0 c -0.34902,0 -0.67157,0.0625 -0.9679,0.18759 -0.29634,0.12512 -0.55642,0.30333 -0.78032,0.53382 -0.22389,0.22389 -0.39836,0.49368 -0.52348,0.80977 -0.12512,0.3095 -0.18758,0.64873 -0.18758,1.0175 0,0.36877 0.0625,0.70801 0.18758,1.01751 0.1317,0.30951 0.30617,0.57929 0.52348,0.80977 0.2239,0.23048 0.48722,0.41142 0.79014,0.54312 0.30291,0.12512 0.63245,0.18759 0.98805,0.18759 0.31609,0 0.59932,-0.0458 0.84956,-0.13798 0.25024,-0.0922 0.46402,-0.21389 0.64182,-0.36535 0.18439,-0.15146 0.3357,-0.31946 0.45424,-0.50385 0.11853,-0.18438 0.20738,-0.3723 0.26665,-0.56327 l -1.00718,-0.36535 c -0.0263,0.0922 -0.0694,0.19074 -0.12867,0.2961 -0.0593,0.0988 -0.13842,0.19462 -0.2372,0.28681 -0.0922,0.0856 -0.21066,0.15777 -0.35553,0.21704 -0.13829,0.0593 -0.29931,0.0889 -0.48369,0.0889 -0.1778,0 -0.34904,-0.0328 -0.51366,-0.0987 -0.16463,-0.0658 -0.30949,-0.16117 -0.4346,-0.28629 -0.11854,-0.1317 -0.21437,-0.29 -0.28681,-0.47439 -0.0724,-0.19097 -0.10852,-0.40798 -0.10852,-0.65164 0,-0.24365 0.0361,-0.45795 0.10852,-0.64233 0.0724,-0.18439 0.16827,-0.33894 0.28681,-0.46406 0.12511,-0.12512 0.26673,-0.22043 0.42478,-0.28629 0.15804,-0.0658 0.32553,-0.0992 0.50333,-0.0992 0.18438,0 0.34268,0.0264 0.47438,0.0791 0.13171,0.0527 0.24371,0.12213 0.3359,0.20774 0.0988,0.0856 0.1747,0.18416 0.22738,0.29611 0.0593,0.10536 0.10181,0.21089 0.12816,0.31626 l 1.02732,-0.37518 c -0.0527,-0.19097 -0.13506,-0.38212 -0.24701,-0.57309 -0.11195,-0.19097 -0.26003,-0.35897 -0.44442,-0.50384 -0.18438,-0.15146 -0.40192,-0.27316 -0.65215,-0.36535 -0.25024,-0.0922 -0.53671,-0.1385 -0.85938,-0.1385 z m 5.09736,0 c -0.29633,0 -0.56664,0.0431 -0.81029,0.12868 -0.23706,0.0856 -0.44115,0.20084 -0.61236,0.34571 -0.17122,0.14488 -0.3096,0.31288 -0.41496,0.50385 -0.10537,0.19097 -0.16783,0.38807 -0.18759,0.59221 l 1.04696,0.23719 c 0.0264,-0.24365 0.12218,-0.44773 0.28681,-0.61236 0.16463,-0.17122 0.39833,-0.25683 0.70125,-0.25683 0.31609,0 0.54655,0.0727 0.69143,0.21755 0.14487,0.13829 0.21704,0.30953 0.21704,0.51367 0,0.0856 -0.0264,0.16101 -0.0791,0.22686 -0.0461,0.0593 -0.13819,0.0991 -0.27647,0.11885 l -1.23455,0.18759 c -0.20414,0.0329 -0.3953,0.0857 -0.5731,0.15813 -0.1778,0.0724 -0.33235,0.17099 -0.46405,0.2961 -0.12512,0.11854 -0.22742,0.26016 -0.30644,0.42478 -0.0724,0.16463 -0.10852,0.35579 -0.10852,0.5731 0,0.19097 0.0361,0.37513 0.10852,0.55293 0.079,0.17122 0.18779,0.32577 0.32608,0.46406 0.14487,0.1317 0.31611,0.23724 0.51366,0.31626 0.20414,0.079 0.43138,0.11834 0.68161,0.11834 0.38853,0 0.70461,-0.0786 0.94827,-0.23668 0.24365,-0.16463 0.42135,-0.3391 0.5333,-0.52348 0,0.19097 0.006,0.33905 0.0196,0.44441 0.0132,0.0988 0.0234,0.15478 0.03,0.16795 h 1.0666 c -0.007,-0.0263 -0.02,-0.10549 -0.0398,-0.23719 -0.0132,-0.13829 -0.0196,-0.31599 -0.0196,-0.5333 v -2.39055 c 0,-0.23707 -0.0393,-0.46431 -0.11834,-0.68162 -0.0724,-0.21731 -0.1909,-0.40794 -0.35553,-0.57257 -0.15805,-0.16463 -0.36912,-0.29655 -0.63252,-0.39533 -0.25683,-0.0988 -0.56916,-0.14831 -0.93793,-0.14831 z m 11.39879,0 c -0.30292,0 -0.59586,0.0625 -0.87902,0.18759 -0.28316,0.11853 -0.53355,0.28977 -0.75086,0.51366 -0.21731,0.21731 -0.39178,0.48115 -0.52348,0.79065 -0.12512,0.3095 -0.18759,0.65521 -0.18759,1.03715 0,0.40828 0.0657,0.77338 0.19741,1.09605 0.13829,0.31609 0.31922,0.58639 0.54312,0.81029 0.22389,0.21731 0.48398,0.38531 0.78031,0.50385 0.29634,0.11194 0.60919,0.16743 0.93845,0.16743 0.28974,0 0.55306,-0.0393 0.79013,-0.11834 0.23707,-0.079 0.44813,-0.18779 0.63252,-0.32608 0.18438,-0.13829 0.33893,-0.29931 0.46405,-0.48369 0.12512,-0.18439 0.22044,-0.382 0.28629,-0.59273 l -0.9679,-0.30644 c -0.079,0.23707 -0.21366,0.43792 -0.40463,0.60255 -0.18438,0.15804 -0.45145,0.23719 -0.80046,0.23719 -0.1778,0 -0.3458,-0.0296 -0.50385,-0.0889 -0.15146,-0.0658 -0.28609,-0.1547 -0.40463,-0.26665 -0.11853,-0.11195 -0.21436,-0.24387 -0.2868,-0.39533 -0.0724,-0.15146 -0.11175,-0.31946 -0.11834,-0.50384 h 3.51658 c 0.007,-0.0132 0.0131,-0.0525 0.0196,-0.11834 0.007,-0.0724 0.01,-0.15482 0.01,-0.24702 0,-0.38194 -0.0528,-0.7244 -0.15813,-1.02732 -0.10536,-0.30951 -0.25992,-0.57282 -0.46406,-0.79014 -0.19755,-0.21731 -0.4447,-0.38531 -0.74104,-0.50384 -0.28974,-0.11853 -0.61876,-0.17777 -0.98753,-0.17777 z m 16.77262,0 c -0.34902,0 -0.67209,0.0625 -0.96842,0.18759 -0.29633,0.12512 -0.55642,0.30333 -0.78031,0.53382 -0.2239,0.22389 -0.39837,0.49368 -0.52349,0.80977 -0.12511,0.3095 -0.18758,0.64873 -0.18758,1.0175 0,0.36877 0.0625,0.70801 0.18758,1.01751 0.13171,0.30951 0.30618,0.57929 0.52349,0.80977 0.22389,0.23048 0.48721,0.41142 0.79013,0.54312 0.30292,0.12512 0.63245,0.18759 0.98805,0.18759 0.31609,0 0.59933,-0.0458 0.84956,-0.13798 0.25024,-0.0922 0.46402,-0.21389 0.64182,-0.36535 0.18439,-0.15146 0.33571,-0.31946 0.45424,-0.50385 0.11853,-0.18438 0.2079,-0.3723 0.26717,-0.56327 l -1.00769,-0.36535 c -0.0263,0.0922 -0.0694,0.19074 -0.12868,0.2961 -0.0593,0.0988 -0.1379,0.19462 -0.23668,0.28681 -0.0922,0.0856 -0.21117,0.15777 -0.35605,0.21704 -0.13828,0.0593 -0.2993,0.0889 -0.48369,0.0889 -0.1778,0 -0.34903,-0.0328 -0.51366,-0.0987 -0.16463,-0.0658 -0.30948,-0.16117 -0.4346,-0.28629 -0.11853,-0.1317 -0.21385,-0.29 -0.28629,-0.47439 -0.0724,-0.19097 -0.10903,-0.40798 -0.10903,-0.65164 0,-0.24365 0.0366,-0.45795 0.10903,-0.64233 0.0724,-0.18439 0.16776,-0.33894 0.28629,-0.46406 0.12512,-0.12512 0.26674,-0.22043 0.42478,-0.28629 0.15804,-0.0658 0.32605,-0.0992 0.50385,-0.0992 0.18438,0 0.34216,0.0264 0.47387,0.0791 0.1317,0.0527 0.2437,0.12213 0.3359,0.20774 0.0988,0.0856 0.17469,0.18416 0.22737,0.29611 0.0593,0.10536 0.10182,0.21089 0.12816,0.31626 l 1.02733,-0.37518 c -0.0527,-0.19097 -0.13507,-0.38212 -0.24702,-0.57309 -0.11195,-0.19097 -0.26003,-0.35897 -0.44441,-0.50384 -0.18439,-0.15146 -0.40192,-0.27316 -0.65216,-0.36535 -0.25024,-0.0922 -0.53619,-0.1385 -0.85886,-0.1385 z m -46.17858,0.01 c -0.26999,0 -0.53706,0.063 -0.80047,0.1881 -0.25682,0.11854 -0.46414,0.31564 -0.62218,0.59222 v -0.64183 h -1.11621 v 4.81056 h 1.14566 v -2.77554 c 0,-0.31609 0.0824,-0.58316 0.24702,-0.80047 0.17121,-0.22389 0.4216,-0.33589 0.75086,-0.33589 0.36218,0 0.6158,0.10553 0.76067,0.31626 0.15146,0.20414 0.22686,0.45452 0.22686,0.75086 v 2.84478 h 1.14619 v -3.04271 c 0,-0.2634 -0.0366,-0.51004 -0.10904,-0.74052 -0.0724,-0.23048 -0.18069,-0.43133 -0.32556,-0.60255 -0.13829,-0.1778 -0.31651,-0.31618 -0.53382,-0.41496 -0.21731,-0.0988 -0.47365,-0.14831 -0.76998,-0.14831 z m 35.39164,0 c -0.26999,0 -0.53978,0.0662 -0.80977,0.19792 -0.26999,0.12512 -0.47408,0.30929 -0.61237,0.55294 v -0.61237 h -1.09657 v 4.81056 h 1.13585 v -2.8546 c 0,-0.30951 0.0889,-0.56312 0.26665,-0.76068 0.1778,-0.20414 0.42172,-0.30644 0.73122,-0.30644 0.32926,0 0.56619,0.0958 0.71107,0.2868 0.14487,0.19097 0.21755,0.42467 0.21755,0.70125 v 2.93367 h 1.12603 v -2.8546 c 0,-0.29634 0.0888,-0.54672 0.26665,-0.75086 0.18439,-0.21073 0.42779,-0.31626 0.73071,-0.31626 0.32267,0 0.55637,0.0958 0.70125,0.2868 0.15146,0.18439 0.22737,0.41809 0.22737,0.70125 v 2.93367 h 1.1064 v -3.12125 c 0,-0.31609 -0.0495,-0.58963 -0.14831,-0.82011 -0.0922,-0.23048 -0.21713,-0.4184 -0.37518,-0.56327 -0.15804,-0.15146 -0.33897,-0.26294 -0.54311,-0.33538 -0.20415,-0.0724 -0.41521,-0.10904 -0.63252,-0.10904 -0.31609,0 -0.60903,0.063 -0.87902,0.1881 -0.26341,0.12512 -0.49064,0.34537 -0.68161,0.66146 -0.13171,-0.28316 -0.32609,-0.49371 -0.58291,-0.632 -0.25682,-0.14488 -0.54329,-0.21756 -0.85938,-0.21756 z m -52.727533,0.13849 v 4.81056 h 1.136365 v -4.81056 z m 58.802613,0 v 4.81056 h 1.13585 v -4.81056 z m -12.05094,0.80977 c 0.19755,0 0.36879,0.0296 0.51366,0.0889 0.14487,0.0593 0.26657,0.13841 0.36535,0.23719 0.0988,0.0988 0.17146,0.21401 0.21756,0.34572 0.0527,0.12512 0.0823,0.25703 0.0889,0.39532 h -2.36109 c 0.007,-0.12512 0.0394,-0.25057 0.0987,-0.37569 0.0593,-0.1317 0.13842,-0.24693 0.23719,-0.34571 0.0988,-0.10536 0.21725,-0.18775 0.35554,-0.24701 0.14487,-0.0659 0.30641,-0.0987 0.48421,-0.0987 z m -5.83789,0.0791 c 0.37535,0 0.67851,0.13515 0.90899,0.40514 0.23706,0.26341 0.35553,0.62579 0.35553,1.08676 0,0.23048 -0.0328,0.44103 -0.0987,0.632 -0.0593,0.18438 -0.14488,0.34592 -0.25683,0.48421 -0.11195,0.1317 -0.2471,0.23672 -0.40515,0.31574 -0.15804,0.0724 -0.32927,0.10852 -0.51366,0.10852 -0.39511,0 -0.7112,-0.13787 -0.94826,-0.41444 -0.23048,-0.28317 -0.34572,-0.65525 -0.34572,-1.11621 0,-0.46097 0.1217,-0.82659 0.36536,-1.09658 0.25023,-0.26999 0.56308,-0.40514 0.93844,-0.40514 z m -28.62564,1.70894 v 0.21756 c 0,0.23706 -0.0328,0.43416 -0.0987,0.59221 -0.0658,0.15804 -0.1547,0.28673 -0.26665,0.3855 -0.10536,0.0922 -0.23081,0.16113 -0.37568,0.20723 -0.14488,0.0395 -0.2962,0.0594 -0.45424,0.0594 -0.23048,0 -0.40495,-0.0625 -0.52348,-0.18758 -0.11854,-0.12512 -0.17777,-0.26997 -0.17777,-0.4346 0,-0.19756 0.0625,-0.34564 0.18759,-0.44442 0.12512,-0.10536 0.27643,-0.17481 0.45423,-0.20774 z m 13.29531,0 v 0.21756 c 0,0.23706 -0.0328,0.43416 -0.0987,0.59221 -0.0659,0.15804 -0.15471,0.28673 -0.26665,0.3855 -0.10537,0.0922 -0.2303,0.16113 -0.37517,0.20723 -0.14488,0.0395 -0.29671,0.0594 -0.45476,0.0594 -0.23048,0 -0.40495,-0.0625 -0.52348,-0.18758 -0.11853,-0.12512 -0.17777,-0.26997 -0.17777,-0.4346 0,-0.19756 0.0625,-0.34564 0.18759,-0.44442 0.12512,-0.10536 0.27695,-0.17481 0.45475,-0.20774 z m 10.6779,0 v 0.21756 c 0,0.23706 -0.0328,0.43416 -0.0987,0.59221 -0.0658,0.15804 -0.1547,0.28673 -0.26665,0.3855 -0.10537,0.0922 -0.2303,0.16113 -0.37517,0.20723 -0.14488,0.0395 -0.29671,0.0594 -0.45476,0.0594 -0.23048,0 -0.40494,-0.0625 -0.52348,-0.18758 -0.11853,-0.12512 -0.17777,-0.26997 -0.17777,-0.4346 0,-0.19756 0.0625,-0.34564 0.18759,-0.44442 0.12512,-0.10536 0.27695,-0.17481 0.45475,-0.20774 z m -10.58902,7.30963 c -0.20414,0 -0.37861,0.0722 -0.52348,0.21704 -0.14487,0.14487 -0.21704,0.32309 -0.21704,0.53382 0,0.21072 0.0722,0.38842 0.21704,0.5333 0.14487,0.13829 0.31934,0.20722 0.52348,0.20722 0.21073,0 0.38895,-0.0689 0.53382,-0.20722 0.14487,-0.14488 0.21704,-0.32258 0.21704,-0.5333 0,-0.21073 -0.0722,-0.38895 -0.21704,-0.53382 -0.14487,-0.14487 -0.32309,-0.21704 -0.53382,-0.21704 z m -19.68613,0.0987 v 7.1515 h 1.14566 v -7.1515 z m 50.41604,0.8692 v 0.7214 c 0,0.21073 -0.0592,0.38843 -0.17777,0.5333 -0.11853,0.14488 -0.30645,0.21704 -0.56327,0.21704 h -0.24701 v 1.01751 h 0.88935 v 2.42001 c 0,0.45438 0.12816,0.80655 0.38499,1.05678 0.25682,0.25024 0.60899,0.37569 1.05678,0.37569 0.21073,0 0.37226,-0.0167 0.48421,-0.0496 0.11195,-0.0263 0.18463,-0.0457 0.21756,-0.0589 v -0.94826 c -0.0263,0.007 -0.0791,0.0163 -0.15813,0.0294 -0.079,0.007 -0.15818,0.01 -0.2372,0.01 -0.21072,0 -0.36528,-0.0463 -0.46405,-0.13849 -0.0988,-0.0988 -0.14831,-0.25333 -0.14831,-0.46406 v -2.23242 h 0.99735 v -1.01751 h -0.99735 v -1.47174 z m -46.02045,1.32395 c -0.29633,0 -0.56663,0.0426 -0.81028,0.12816 -0.23707,0.0856 -0.44115,0.20084 -0.61237,0.34571 -0.17121,0.14488 -0.30908,0.31288 -0.41444,0.50385 -0.10537,0.19097 -0.16835,0.38859 -0.18811,0.59273 l 1.04748,0.23719 c 0.0263,-0.24365 0.12166,-0.44825 0.28629,-0.61288 0.16463,-0.17122 0.39833,-0.25683 0.70125,-0.25683 0.31609,0 0.54656,0.0727 0.69143,0.21755 0.14488,0.13829 0.21756,0.30953 0.21756,0.51367 0,0.0856 -0.0264,0.16152 -0.0791,0.22737 -0.0461,0.0593 -0.13869,0.0986 -0.27698,0.11834 l -1.23455,0.18759 c -0.20414,0.0329 -0.39529,0.0857 -0.57309,0.15813 -0.1778,0.0724 -0.33235,0.17099 -0.46406,0.2961 -0.12512,0.11854 -0.22742,0.26016 -0.30644,0.42478 -0.0724,0.16463 -0.10852,0.35579 -0.10852,0.5731 0,0.19097 0.0361,0.37513 0.10852,0.55293 0.079,0.17122 0.18779,0.32629 0.32608,0.46458 0.14487,0.1317 0.31611,0.23672 0.51366,0.31574 0.20414,0.079 0.43138,0.11885 0.68162,0.11885 0.38852,0 0.70461,-0.0791 0.94826,-0.23719 0.24365,-0.16463 0.42135,-0.3391 0.5333,-0.52348 0,0.19097 0.007,0.33905 0.0202,0.44441 0.0132,0.0988 0.0229,0.15478 0.0295,0.16795 h 1.0666 c -0.007,-0.0263 -0.0195,-0.10549 -0.0393,-0.23719 -0.0132,-0.13829 -0.0196,-0.31599 -0.0196,-0.5333 v -2.39055 c 0,-0.23707 -0.0398,-0.46379 -0.11886,-0.6811 -0.0724,-0.21731 -0.1909,-0.40846 -0.35553,-0.57309 -0.15804,-0.16463 -0.3686,-0.29655 -0.632,-0.39533 -0.25683,-0.0988 -0.56968,-0.14779 -0.93845,-0.14779 z m 32.76441,0 c -0.25024,0 -0.48394,0.0426 -0.70125,0.12816 -0.21072,0.079 -0.39489,0.19102 -0.55294,0.33589 -0.15804,0.13829 -0.28349,0.30306 -0.37568,0.49403 -0.0922,0.18439 -0.13798,0.382 -0.13798,0.59273 0,0.33584 0.10825,0.63201 0.32556,0.88883 0.21731,0.25024 0.54038,0.42147 0.96842,0.51367 l 0.71107,0.15813 c 0.19097,0.0395 0.33258,0.10521 0.42478,0.1974 0.0922,0.0922 0.13797,0.20419 0.13797,0.3359 0,0.15146 -0.0625,0.28286 -0.18758,0.39481 -0.11854,0.10536 -0.29624,0.15813 -0.5333,0.15813 -0.30951,0 -0.54644,-0.0824 -0.71107,-0.24702 -0.15805,-0.16463 -0.2469,-0.35526 -0.26665,-0.57257 l -0.99787,0.27647 c 0.0132,0.13829 0.0595,0.29284 0.13849,0.46405 0.079,0.16463 0.19749,0.32293 0.35553,0.47439 0.15805,0.14487 0.3589,0.26658 0.60255,0.36535 0.24365,0.0988 0.53982,0.14831 0.88883,0.14831 0.30292,0 0.56947,-0.0463 0.79996,-0.13849 0.23048,-0.0922 0.41839,-0.21066 0.56327,-0.35553 0.15146,-0.15146 0.26346,-0.31623 0.3359,-0.49403 0.079,-0.18438 0.11833,-0.36855 0.11833,-0.55294 0,-0.3556 -0.11846,-0.66198 -0.35553,-0.9188 -0.23048,-0.26341 -0.57295,-0.44435 -1.02733,-0.54312 l -0.7307,-0.14831 c -0.15146,-0.0329 -0.26993,-0.0922 -0.35554,-0.17777 -0.0856,-0.0856 -0.12867,-0.19438 -0.12867,-0.32608 0,-0.15146 0.0625,-0.27963 0.18759,-0.38499 0.1317,-0.11195 0.2997,-0.16795 0.50384,-0.16795 0.15805,0 0.28996,0.0264 0.39533,0.0791 0.11194,0.0461 0.20079,0.10533 0.26665,0.17776 0.0724,0.0724 0.1252,0.15159 0.15813,0.2372 0.0329,0.0856 0.0556,0.16101 0.0687,0.22686 l 0.96841,-0.27647 c -0.0197,-0.11853 -0.066,-0.25368 -0.13849,-0.40514 -0.0659,-0.15805 -0.17139,-0.30613 -0.31626,-0.44442 -0.14487,-0.13829 -0.33228,-0.25352 -0.56276,-0.34572 -0.22389,-0.0988 -0.50389,-0.14779 -0.83974,-0.14779 z m 9.74928,0 c -0.25024,0 -0.48394,0.0426 -0.70125,0.12816 -0.21073,0.079 -0.3949,0.19102 -0.55294,0.33589 -0.15804,0.13829 -0.2835,0.30306 -0.37569,0.49403 -0.0922,0.18439 -0.13797,0.382 -0.13797,0.59273 0,0.33584 0.10825,0.63201 0.32556,0.88883 0.21731,0.25024 0.54038,0.42147 0.96841,0.51367 l 0.71107,0.15813 c 0.19097,0.0395 0.33259,0.10521 0.42478,0.1974 0.0922,0.0922 0.13798,0.20419 0.13798,0.3359 0,0.15146 -0.0625,0.28286 -0.18759,0.39481 -0.11853,0.10536 -0.29623,0.15813 -0.5333,0.15813 -0.3095,0 -0.54644,-0.0824 -0.71107,-0.24702 -0.15804,-0.16463 -0.24689,-0.35526 -0.26665,-0.57257 l -0.99787,0.27647 c 0.0132,0.13829 0.0595,0.29284 0.13849,0.46405 0.079,0.16463 0.19749,0.32293 0.35554,0.47439 0.15804,0.14487 0.35889,0.26658 0.60255,0.36535 0.24365,0.0988 0.53982,0.14831 0.88883,0.14831 0.30292,0 0.56947,-0.0463 0.79995,-0.13849 0.23048,-0.0922 0.4184,-0.21066 0.56327,-0.35553 0.15146,-0.15146 0.26346,-0.31623 0.3359,-0.49403 0.079,-0.18438 0.11834,-0.36855 0.11834,-0.55294 0,-0.3556 -0.11847,-0.66198 -0.35553,-0.9188 -0.23048,-0.26341 -0.57295,-0.44435 -1.02733,-0.54312 l -0.73071,-0.14831 c -0.15145,-0.0329 -0.26992,-0.0922 -0.35553,-0.17777 -0.0856,-0.0856 -0.12867,-0.19438 -0.12867,-0.32608 0,-0.15146 0.0625,-0.27963 0.18758,-0.38499 0.13171,-0.11195 0.29971,-0.16795 0.50385,-0.16795 0.15804,0 0.28996,0.0264 0.39532,0.0791 0.11195,0.0461 0.2008,0.10533 0.26665,0.17776 0.0724,0.0724 0.12521,0.15159 0.15813,0.2372 0.0329,0.0856 0.0556,0.16101 0.0687,0.22686 l 0.96842,-0.27647 c -0.0198,-0.11853 -0.0661,-0.25368 -0.1385,-0.40514 -0.0659,-0.15805 -0.17138,-0.30613 -0.31625,-0.44442 -0.14488,-0.13829 -0.33228,-0.25352 -0.56276,-0.34572 -0.2239,-0.0988 -0.5039,-0.14779 -0.83974,-0.14779 z m 8.63306,0 c -0.30292,0 -0.59585,0.0625 -0.87901,0.18758 -0.28317,0.11854 -0.53355,0.28977 -0.75086,0.51367 -0.21731,0.21731 -0.39178,0.48063 -0.52349,0.79013 -0.12511,0.3095 -0.18758,0.65521 -0.18758,1.03715 0,0.40828 0.0657,0.7739 0.1974,1.09657 0.13829,0.31609 0.31974,0.58587 0.54364,0.80977 0.2239,0.21731 0.48398,0.38531 0.78031,0.50385 0.29634,0.11194 0.60919,0.16794 0.93845,0.16794 0.28975,0 0.55306,-0.0398 0.79013,-0.11885 0.23707,-0.079 0.44762,-0.18727 0.632,-0.32556 0.18439,-0.13829 0.33946,-0.29983 0.46457,-0.48421 0.12512,-0.18439 0.22044,-0.382 0.28629,-0.59273 l -0.9679,-0.30592 c -0.079,0.23706 -0.21417,0.43791 -0.40514,0.60254 -0.18439,0.15805 -0.45094,0.23668 -0.79995,0.23668 -0.1778,0 -0.3458,-0.0296 -0.50385,-0.0889 -0.15146,-0.0659 -0.28661,-0.1547 -0.40514,-0.26665 -0.11853,-0.11195 -0.21385,-0.24335 -0.28629,-0.39481 -0.0724,-0.15146 -0.11227,-0.31946 -0.11885,-0.50385 h 3.51658 c 0.007,-0.0132 0.0136,-0.053 0.0202,-0.11885 0.007,-0.0724 0.01,-0.15431 0.01,-0.2465 0,-0.38194 -0.0528,-0.72441 -0.15813,-1.02733 -0.10536,-0.3095 -0.26043,-0.57333 -0.46457,-0.79065 -0.19756,-0.21731 -0.44419,-0.38479 -0.74053,-0.50332 -0.28974,-0.11854 -0.61928,-0.17777 -0.98805,-0.17777 z m -45.1807,0.01 c -0.27,0 -0.53655,0.0625 -0.79995,0.18758 -0.25683,0.11854 -0.46414,0.31615 -0.62219,0.59273 v -0.64234 h -1.11621 v 4.81056 h 1.14567 v -2.77554 c 0,-0.31609 0.0824,-0.58264 0.24701,-0.79995 0.17121,-0.2239 0.4216,-0.3359 0.75086,-0.3359 0.36218,0 0.61529,0.10502 0.76016,0.31575 0.15146,0.20414 0.22738,0.45452 0.22738,0.75086 v 2.84478 h 1.14566 v -3.04219 c 0,-0.26341 -0.0361,-0.51056 -0.10852,-0.74104 -0.0724,-0.23048 -0.1812,-0.43133 -0.32608,-0.60255 -0.13829,-0.1778 -0.31599,-0.31618 -0.5333,-0.41496 -0.21731,-0.0988 -0.47416,-0.14779 -0.77049,-0.14779 z m 5.6503,0 c -0.26999,0 -0.53706,0.0625 -0.80047,0.18758 -0.25682,0.11854 -0.46414,0.31615 -0.62218,0.59273 v -0.64234 h -1.11622 v 4.81056 h 1.14619 v -2.77554 c 0,-0.31609 0.0819,-0.58264 0.24649,-0.79995 0.17122,-0.2239 0.4216,-0.3359 0.75086,-0.3359 0.36219,0 0.61581,0.10502 0.76068,0.31575 0.15146,0.20414 0.22738,0.45452 0.22738,0.75086 v 2.84478 h 1.14566 v -3.04219 c 0,-0.26341 -0.0361,-0.51056 -0.10852,-0.74104 -0.0724,-0.23048 -0.1812,-0.43133 -0.32608,-0.60255 -0.13828,-0.1778 -0.31599,-0.31618 -0.5333,-0.41496 -0.21731,-0.0988 -0.47416,-0.14779 -0.77049,-0.14779 z m 8.20828,0 c -0.26999,0 -0.53654,0.0625 -0.79995,0.18758 -0.25682,0.11854 -0.46466,0.31615 -0.6227,0.59273 v -0.64234 h -1.11621 v 4.81056 h 1.14618 v -2.77554 c 0,-0.31609 0.0824,-0.58264 0.24702,-0.79995 0.17121,-0.2239 0.42108,-0.3359 0.75034,-0.3359 0.36218,0 0.6158,0.10502 0.76067,0.31575 0.15146,0.20414 0.22738,0.45452 0.22738,0.75086 v 2.84478 h 1.14567 v -3.04219 c 0,-0.26341 -0.0361,-0.51056 -0.10852,-0.74104 -0.0724,-0.23048 -0.18121,-0.43133 -0.32608,-0.60255 -0.13829,-0.1778 -0.31599,-0.31618 -0.5333,-0.41496 -0.21731,-0.0988 -0.47416,-0.14779 -0.7705,-0.14779 z m 37.30832,0 c -0.26999,0 -0.54029,0.0657 -0.81029,0.1974 -0.26999,0.12512 -0.47407,0.30929 -0.61236,0.55294 v -0.61237 h -1.09606 v 4.81056 h 1.13585 v -2.8546 c 0,-0.30951 0.0888,-0.56312 0.26665,-0.76068 0.1778,-0.20414 0.4212,-0.30592 0.7307,-0.30592 0.32926,0 0.56671,0.0953 0.71159,0.28628 0.14487,0.19097 0.21704,0.42467 0.21704,0.70125 v 2.93367 h 1.12603 v -2.8546 c 0,-0.29634 0.0889,-0.54672 0.26665,-0.75086 0.18438,-0.21073 0.4283,-0.31574 0.73122,-0.31574 0.32267,0 0.55638,0.0953 0.70125,0.28628 0.15146,0.18439 0.22738,0.41809 0.22738,0.70125 v 2.93367 h 1.10587 v -3.12125 c 0,-0.31609 -0.049,-0.58963 -0.14779,-0.82011 -0.0922,-0.23048 -0.21765,-0.41788 -0.37569,-0.56275 -0.15805,-0.15146 -0.33898,-0.26346 -0.54312,-0.3359 -0.20414,-0.0724 -0.41469,-0.10852 -0.632,-0.10852 -0.31609,0 -0.60954,0.0625 -0.87954,0.18758 -0.2634,0.12512 -0.49012,0.34589 -0.68109,0.66198 -0.1317,-0.28316 -0.32609,-0.49423 -0.58291,-0.63252 -0.25682,-0.14488 -0.54329,-0.21704 -0.85938,-0.21704 z m -64.877177,0.0294 c -0.375356,0 -0.694674,0.0759 -0.958082,0.22738 -0.263407,0.14487 -0.454558,0.32257 -0.573091,0.5333 v -0.65216 h -1.106393 v 6.68745 h 1.136365 v -2.42001 c 0.125119,0.18439 0.31252,0.34217 0.562757,0.47388 0.250236,0.12511 0.550155,0.18758 0.899169,0.18758 0.34243,0 0.651532,-0.0625 0.928109,-0.18758 0.283163,-0.13171 0.523848,-0.30941 0.721403,-0.5333 0.197556,-0.23049 0.348873,-0.49704 0.454236,-0.79996 0.105363,-0.3095 0.15813,-0.6455 0.15813,-1.00769 0,-0.3556 -0.04953,-0.68461 -0.148311,-0.98753 -0.09878,-0.30951 -0.243629,-0.57657 -0.434599,-0.80047 -0.184385,-0.2239 -0.414853,-0.39836 -0.691431,-0.52348 -0.276577,-0.13171 -0.592663,-0.19741 -0.948262,-0.19741 z m 32.606277,0.0196 c -0.32926,0 -0.63189,0.0625 -0.90847,0.18759 -0.26999,0.12511 -0.50369,0.29312 -0.70125,0.50384 -0.19097,0.21073 -0.3428,0.45788 -0.45475,0.74104 -0.10537,0.28316 -0.15762,0.5858 -0.15762,0.90847 0,0.33585 0.056,0.6487 0.16795,0.93845 0.11195,0.28316 0.2665,0.53031 0.46406,0.74104 0.19755,0.20414 0.43125,0.36567 0.70125,0.48421 0.26999,0.11853 0.56616,0.17776 0.88883,0.17776 0.3556,0 0.64905,-0.0695 0.87953,-0.20774 0.23707,-0.13829 0.4083,-0.30305 0.51367,-0.49402 v 0.50384 c 0,0.96144 -0.45447,1.44229 -1.36323,1.44229 -0.33584,0 -0.61261,-0.0986 -0.82992,-0.29611 -0.21073,-0.19755 -0.33566,-0.4447 -0.37517,-0.74104 l -1.0573,0.27647 c 0.0329,0.24365 0.10884,0.47089 0.22738,0.68162 0.12511,0.21731 0.28665,0.40522 0.4842,0.56327 0.20414,0.15804 0.43785,0.28298 0.70125,0.37517 0.27,0.0922 0.56293,0.13849 0.87902,0.13849 0.45438,0 0.83616,-0.0694 1.14567,-0.20774 0.31608,-0.13829 0.5697,-0.32245 0.76067,-0.55293 0.19756,-0.23049 0.33918,-0.4938 0.42478,-0.79014 0.0922,-0.29633 0.1385,-0.60595 0.1385,-0.92862 v -4.35633 h -1.1064 v 0.61237 c -0.10536,-0.19756 -0.27659,-0.36181 -0.51366,-0.49351 -0.23048,-0.13829 -0.53363,-0.20774 -0.90899,-0.20774 z m -10.13426,0.0889 v 4.81056 h 1.13584 v -4.81056 z m 20.34811,0 2.05465,4.23747 -1.156,2.51923 h 1.22525 l 3.06183,-6.7567 h -1.21492 l -1.29397,3.04271 -1.38286,-3.04271 z m 16.08067,0.81029 c 0.19756,0 0.36879,0.0296 0.51366,0.0889 0.14488,0.0593 0.2671,0.1379 0.36587,0.23668 0.0988,0.0988 0.17095,0.21401 0.21704,0.34572 0.0527,0.12512 0.0823,0.25703 0.0889,0.39532 h -2.36058 c 0.007,-0.12512 0.0394,-0.25005 0.0987,-0.37517 0.0593,-0.1317 0.13842,-0.24694 0.23719,-0.34571 0.0988,-0.10537 0.21725,-0.18775 0.35554,-0.24702 0.14487,-0.0659 0.30589,-0.0987 0.48369,-0.0987 z m -26.10642,0.0889 c 0.1778,0 0.34205,0.0328 0.49351,0.0987 0.15146,0.0593 0.28015,0.14811 0.38551,0.26665 0.11195,0.11853 0.19756,0.26338 0.25683,0.43459 0.0659,0.16463 0.0987,0.3488 0.0987,0.55294 0,0.41487 -0.11523,0.74764 -0.34571,0.99787 -0.2239,0.24366 -0.52007,0.36536 -0.88884,0.36536 -0.37535,0 -0.6785,-0.1217 -0.90899,-0.36536 -0.23048,-0.24365 -0.34571,-0.57642 -0.34571,-0.99787 0,-0.41486 0.11523,-0.74388 0.34571,-0.98753 0.23707,-0.24366 0.54022,-0.36536 0.90899,-0.36536 z m -33.011935,0.01 c 0.388525,0 0.701377,0.13515 0.938444,0.40515 0.237066,0.26999 0.35605,0.63186 0.35605,1.08623 0,0.46097 -0.122217,0.82982 -0.365869,1.1064 -0.237066,0.26999 -0.546685,0.40514 -0.928625,0.40514 -0.375356,0 -0.684457,-0.13515 -0.928109,-0.40514 -0.243652,-0.27658 -0.365869,-0.64543 -0.365869,-1.1064 0,-0.22389 0.03337,-0.42798 0.09922,-0.61236 0.06585,-0.18439 0.154702,-0.33894 0.26665,-0.46406 0.111948,-0.1317 0.246582,-0.234 0.404626,-0.30644 0.158045,-0.0724 0.332513,-0.10852 0.523483,-0.10852 z m 8.880595,1.68879 v 0.21756 c 0,0.23706 -0.0334,0.43468 -0.0992,0.59272 -0.0658,0.15805 -0.1547,0.28622 -0.26665,0.38499 -0.10536,0.0922 -0.2303,0.16165 -0.37517,0.20774 -0.14487,0.0395 -0.29619,0.0589 -0.45424,0.0589 -0.23048,0 -0.40495,-0.0625 -0.52348,-0.18758 -0.11853,-0.12512 -0.17777,-0.26997 -0.17777,-0.4346 0,-0.19756 0.0625,-0.34564 0.18759,-0.44442 0.12512,-0.10536 0.27644,-0.17429 0.45424,-0.20722 z"
       style="font-weight:500;font-size:9.87778px;font-family:'CircularXX TT';-inkscape-font-specification:'CircularXX TT Medium';fill:#e1251b;stroke-width:2;stroke-linecap:round;stroke-linejoin:round;stroke-miterlimit:4.6;paint-order:stroke markers fill"
       id="path5" />
  </g>
</svg>
