<?xml version="1.0" encoding="UTF-8" standalone="no"?>
<!-- Created with Inkscape (http://www.inkscape.org/) -->

<svg
   width="66.674942mm"
   height="49.531624mm"
   viewBox="0 0 66.674942 49.531624"
   version="1.1"
   id="svg1"
   inkscape:version="1.3 (0e150ed, 2023-07-21)"
   sodipodi:docname="gaps-logo-only.svg"
   xmlns:inkscape="http://www.inkscape.org/namespaces/inkscape"
   xmlns:sodipodi="http://sodipodi.sourceforge.net/DTD/sodipodi-0.dtd"
   xmlns="http://www.w3.org/2000/svg"
   xmlns:svg="http://www.w3.org/2000/svg">
  <sodipodi:namedview
     id="namedview1"
     pagecolor="#ffffff"
     bordercolor="#000000"
     borderopacity="0.25"
     inkscape:showpageshadow="2"
     inkscape:pageopacity="0.0"
     inkscape:pagecheckerboard="0"
     inkscape:deskcolor="#d1d1d1"
     inkscape:document-units="mm"
     inkscape:zoom="0.89909976"
     inkscape:cx="47.825616"
     inkscape:cy="55.611182"
     inkscape:window-width="1440"
     inkscape:window-height="449"
     inkscape:window-x="0"
     inkscape:window-y="25"
     inkscape:window-maximized="0"
     inkscape:current-layer="layer1" />
  <defs
     id="defs1" />
  <g
     inkscape:label="Calque 1"
     inkscape:groupmode="layer"
     id="layer1"
     transform="translate(-71.172917,-123.825)">
    <g
       id="g101"
       transform="translate(53.421735,33.043267)">
      <path
         d="m 45.95751,116.90135 c -0.257377,-0.0941 -0.626747,-0.23264 -0.771012,-0.28422 -0.162133,-0.0609 -0.327432,-0.12231 -0.363802,-0.13591 -0.0364,-0.0169 -0.198871,-0.0775 -0.364319,-0.13849 -0.509559,-0.18295 -0.714736,-0.2609 -1.05885,-0.38964 -0.181983,-0.0678 -0.532352,-0.20026 -0.777214,-0.28836 -0.244852,-0.0881 -0.595739,-0.21664 -0.77773,-0.28784 -0.181986,-0.0678 -0.456849,-0.16904 -0.612366,-0.22324 -0.08335,-0.0306 -0.130952,-0.0494 -0.208256,-0.078 -0.12529,0.25488 -0.258474,0.50033 -0.374137,0.76636 -0.110022,0.25305 -0.213273,0.51023 -0.309542,0.77153 -0.09627,0.2613 -0.185685,0.52678 -0.268201,0.79633 -0.08252,0.26956 -0.158096,0.54282 -0.226859,0.82063 -0.06876,0.2778 -0.131025,0.55988 -0.186036,0.84594 -0.05501,0.28605 -0.102919,0.57644 -0.144177,0.87075 -0.04126,0.2943 -0.07585,0.59247 -0.103353,0.89503 -0.0275,0.30256 -0.04774,0.60955 -0.0615,0.92036 -0.01375,0.31081 -0.02067,0.62558 -0.02067,0.94465 0,0.32272 0.0063,0.64096 0.01912,0.95498 0.01284,0.31401 0.03221,0.62383 0.05788,0.92914 0.02567,0.30531 0.05761,0.60619 0.09612,0.90279 0.03851,0.29659 0.08353,0.58905 0.134875,0.87694 0.05134,0.28789 0.108937,0.57142 0.173116,0.8506 0.06418,0.27918 0.134859,0.55377 0.211874,0.82424 0.07702,0.27047 0.160263,0.53664 0.250114,0.7984 0.08985,0.26176 0.186184,0.51899 0.288871,0.77204 0.212708,0.49877 0.442849,0.97917 0.690397,1.44126 0.247548,0.46209 0.512395,0.90629 0.794784,1.3317 0.282388,0.42542 0.582458,0.83237 0.899686,1.22112 0.317229,0.38874 0.652005,0.75897 1.004073,1.11104 0.352069,0.34473 0.717517,0.66919 1.097091,0.97358 0.379574,0.3044 0.773211,0.58861 1.18029,0.85266 0.407079,0.26406 0.827871,0.50803 1.262455,0.73174 0.434584,0.22371 0.883048,0.42745 1.345138,0.61082 0.469424,0.18337 0.943025,0.34358 1.421618,0.48111 0.478593,0.13752 0.962279,0.25248 1.450041,0.34416 0.487761,0.0917 0.979982,0.16035 1.476912,0.20619 0.49693,0.0458 0.998203,0.0687 1.504301,0.0687 0.30806,0 0.609631,-0.008 0.904855,-0.0248 0.295224,-0.0165 0.584225,-0.0414 0.866613,-0.0744 0.282389,-0.033 0.558304,-0.074 0.827857,-0.12351 0.269552,-0.0495 0.532899,-0.10762 0.789616,-0.17363 0.256716,-0.066 0.505711,-0.13744 0.747758,-0.21446 0.242047,-0.077 0.476972,-0.15951 0.704349,-0.24753 0.227378,-0.088 0.4472,-0.18158 0.659908,-0.2806 0.212709,-0.099 0.418462,-0.20365 0.6165,-0.31368 0.396077,-0.22004 0.762793,-0.45093 1.100192,-0.69298 0.168699,-0.12102 0.330178,-0.24451 0.484208,-0.37103 0.15403,-0.12653 0.300406,-0.25607 0.439766,-0.38809 0.293391,-0.27872 0.557488,-0.56092 0.7922,-0.84698 0.234712,-0.28606 0.439949,-0.57581 0.615983,-0.8692 l 0.396358,3.96048 H 68.90288 V 122.53098 H 53.631977 v 4.62091 h 10.298079 c -0.01467,0.16869 -0.03831,0.34199 -0.07131,0.51986 -0.03301,0.17787 -0.07526,0.36022 -0.126607,0.54725 -0.05134,0.18704 -0.111704,0.37896 -0.181385,0.57516 -0.06968,0.19621 -0.148661,0.39718 -0.236678,0.60255 -0.08802,0.19804 -0.187118,0.39296 -0.297139,0.58549 -0.110022,0.19254 -0.230743,0.38244 -0.362769,0.56948 -0.132025,0.18703 -0.275401,0.3714 -0.429431,0.55294 -0.15403,0.18153 -0.319026,0.36036 -0.49506,0.5364 -0.176034,0.17603 -0.364668,0.34529 -0.566374,0.50849 -0.201706,0.1632 -0.416511,0.32041 -0.643888,0.47078 -0.227378,0.15036 -0.46732,0.29397 -0.72037,0.43149 -0.253049,0.13753 -0.519163,0.26857 -0.797884,0.39326 -0.271386,0.11736 -0.55837,0.22049 -0.860929,0.30851 -0.302559,0.088 -0.620732,0.16095 -0.954464,0.21962 -0.333731,0.0587 -0.683094,0.10296 -1.047998,0.1323 -0.364904,0.0293 -0.745455,0.0439 -1.141532,0.0439 -0.337399,0 -0.670909,-0.0146 -1.000973,-0.0439 -0.330064,-0.0293 -0.656539,-0.0736 -0.979268,-0.1323 -0.322729,-0.0587 -0.641653,-0.1316 -0.957048,-0.21962 -0.315394,-0.088 -0.627283,-0.19115 -0.935343,-0.30851 -0.30806,-0.12469 -0.607613,-0.26276 -0.89917,-0.41496 -0.291557,-0.1522 -0.575024,-0.31846 -0.850077,-0.49816 -0.275054,-0.1797 -0.541918,-0.37312 -0.800468,-0.58033 -0.25855,-0.2072 -0.508812,-0.42829 -0.750859,-0.66301 -0.234712,-0.24204 -0.458569,-0.49784 -0.671277,-0.76739 -0.212708,-0.26955 -0.414427,-0.5525 -0.605131,-0.84956 -0.190703,-0.29706 -0.370285,-0.6082 -0.538985,-0.93276 -0.168699,-0.32456 -0.326144,-0.66286 -0.472839,-1.01493 -0.139361,-0.3594 -0.261349,-0.73315 -0.365869,-1.12189 -0.104521,-0.38874 -0.191803,-0.79218 -0.261483,-1.21026 -0.06968,-0.41809 -0.12174,-0.8507 -0.15658,-1.29812 -0.03484,-0.44742 -0.05271,-0.90972 -0.05271,-1.38647 0,-0.4841 0.01862,-0.95193 0.05529,-1.40302 0.03667,-0.45109 0.0915,-0.88572 0.164848,-1.3038 0.07335,-0.41808 0.165414,-0.8195 0.275435,-1.20457 0.110022,-0.38508 0.238295,-0.75381 0.38499,-1.10588 0.117826,-0.27493 0.248086,-0.5319 0.378789,-0.78858 z"
         style="font-size:44.0086px;font-family:Arial;-inkscape-font-specification:'Arial, Normal';display:inline;fill:#e1251b;stroke:#ffffff;stroke-width:2.64583;stroke-linecap:round;stroke-linejoin:round;stroke-miterlimit:4.6;paint-order:stroke fill markers"
         id="path98" />
      <path
         d="m 67.542756,112.72589 c -0.08977,-0.13471 -0.172387,-0.27189 -0.267684,-0.40462 -0.198039,-0.28606 -0.409326,-0.56324 -0.633036,-0.83096 -0.223711,-0.26772 -0.460136,-0.52628 -0.709518,-0.77566 -0.249382,-0.24939 -0.511462,-0.48933 -0.786515,-0.72037 -0.275054,-0.23105 -0.563305,-0.45289 -0.86403,-0.6656 -0.29339,-0.22004 -0.598478,-0.42804 -0.915706,-0.62425 -0.317229,-0.1962 -0.646471,-0.38057 -0.987537,-0.55294 -0.341066,-0.17236 -0.693946,-0.33309 -1.05885,-0.48162 -0.364904,-0.14853 -0.741938,-0.2851 -1.130681,-0.40979 -0.388742,-0.13203 -0.787396,-0.24773 -1.196309,-0.34675 -0.408913,-0.099 -0.827687,-0.18152 -1.256771,-0.24753 -0.429083,-0.066 -0.868495,-0.11531 -1.317749,-0.14831 -0.449254,-0.033 -0.908269,-0.0496 -1.377693,-0.0496 -0.506099,0 -1.008638,0.0229 -1.507402,0.0687 -0.498764,0.0458 -0.993752,0.1145 -1.485181,0.20618 -0.491429,0.0917 -0.979382,0.20664 -1.463476,0.34417 -0.484094,0.13753 -0.964497,0.29774 -1.441256,0.48111 -0.469424,0.18337 -0.926189,0.3871 -1.369942,0.61081 -0.443753,0.22371 -0.874346,0.46769 -1.292428,0.73174 -0.418081,0.26405 -0.823537,0.54827 -1.215946,0.85266 -0.39241,0.30439 -0.772211,0.62885 -1.138949,0.97359 -0.179701,0.17236 -0.355074,0.34981 -0.526066,0.53226 -0.170991,0.18246 -0.337429,0.36971 -0.499711,0.56224 -0.324563,0.38508 -0.631668,0.79053 -0.921391,1.21595 -0.289723,0.42542 -0.562121,0.87111 -0.817004,1.33687 -0.120906,0.22093 -0.224898,0.46142 -0.337964,0.69143 0.0773,0.0287 0.124903,0.0474 0.208256,0.078 0.155517,0.0542 0.43038,0.15547 0.612366,0.22324 0.181991,0.0712 0.532878,0.19975 0.77773,0.28784 0.244862,0.0881 0.595231,0.2206 0.777214,0.28836 0.344114,0.12874 0.549291,0.20669 1.05885,0.38964 0.165448,0.061 0.327923,0.12156 0.364319,0.13849 0.03637,0.0136 0.201669,0.075 0.363802,0.13591 0.144265,0.0516 0.513635,0.19013 0.771012,0.28422 0.04016,-0.0789 0.0749,-0.16522 0.116272,-0.24236 0.176034,-0.32823 0.363168,-0.64139 0.561206,-0.93845 0.198039,-0.29706 0.406792,-0.57851 0.626835,-0.84439 0.220043,-0.26589 0.450934,-0.51615 0.692981,-0.75086 0.249382,-0.23471 0.506444,-0.45378 0.770496,-0.65732 0.264051,-0.20354 0.535183,-0.39143 0.813904,-0.56379 0.27872,-0.17237 0.564955,-0.32907 0.858345,-0.47026 0.29339,-0.14119 0.594211,-0.2667 0.902271,-0.37672 0.308059,-0.11736 0.616664,-0.21998 0.926558,-0.30799 0.309894,-0.088 0.621032,-0.16147 0.93276,-0.22014 0.311727,-0.0587 0.624366,-0.10296 0.937927,-0.1323 0.313561,-0.0293 0.628217,-0.0439 0.943612,-0.0439 0.308059,0 0.608363,0.0111 0.901753,0.0331 0.293391,0.022 0.579625,0.0552 0.858346,0.0992 0.278721,0.044 0.549852,0.0988 0.813904,0.16485 0.264051,0.066 0.521113,0.14298 0.770495,0.23099 0.256717,0.088 0.504961,0.1836 0.745174,0.28629 0.240214,0.10269 0.472372,0.21234 0.696082,0.3297 0.22371,0.11735 0.439265,0.24211 0.646472,0.37413 0.207207,0.13203 0.406159,0.27137 0.596863,0.41807 0.190704,0.14669 0.373053,0.29987 0.547253,0.4594 0.174201,0.15953 0.339947,0.32579 0.497644,0.49816 0.107202,0.11717 0.205316,0.24121 0.304891,0.36432 0.118165,-0.0434 0.449957,-0.16651 0.551905,-0.20361 0.244859,-0.0881 0.612273,-0.22001 0.810803,-0.29455 0.20184,-0.0745 0.767582,-0.2845 1.257287,-0.46406 0.493019,-0.18295 1.058754,-0.38952 1.257288,-0.46405 0.201838,-0.0746 0.595691,-0.22032 0.876949,-0.32195 0.164994,-0.0616 0.247125,-0.0917 0.36897,-0.13694 z"
         style="fill:#e1251b;fill-opacity:1;stroke:#ffffff;stroke-width:3.175;stroke-linecap:round;stroke-linejoin:round;paint-order:stroke markers fill"
         id="path96" />
      <path
         d="m 50.52364,92.373129 v 5.17e-4 c -0.0071,0.0071 -0.08257,0.01722 -0.175184,0.02739 -0.203491,0.02202 -0.516317,0.0792 -0.806669,0.143143 -0.290351,0.06395 -0.558156,0.134476 -0.67231,0.181901 -0.03966,0.02033 -0.291331,0.111847 -0.556038,0.206706 -0.264704,0.09824 -0.612286,0.226857 -0.777731,0.287838 -0.16213,0.06098 -0.721255,0.26762 -1.240751,0.457336 -0.51948,0.189716 -0.999397,0.366156 -1.065568,0.393258 -0.06942,0.02711 -0.181863,0.07085 -0.248047,0.09457 -0.06942,0.0271 -0.416962,0.156223 -0.771012,0.288354 -0.354047,0.128736 -0.966059,0.352257 -1.356506,0.494544 -0.390441,0.142287 -0.823967,0.301323 -0.959632,0.355534 -0.135661,0.0542 -0.790648,0.298158 -1.455725,0.542085 -0.66508,0.243921 -1.409824,0.518304 -1.654679,0.609782 -0.244857,0.09147 -0.721349,0.267681 -1.05885,0.389641 -0.337502,0.125347 -1.839695,0.681013 -3.341915,1.236617 -1.502219,0.555596 -3.087044,1.14147 -3.523816,1.300695 -0.436768,0.162613 -0.847152,0.315284 -0.910022,0.338998 -0.0628,0.02711 -0.456729,0.17259 -0.876949,0.325042 -0.416909,0.14907 -0.814085,0.29483 -0.876949,0.32194 -0.06282,0.027 -0.492982,0.18615 -0.952914,0.35554 -0.456613,0.166 -1.200852,0.44068 -1.654162,0.60668 -1.3103,0.48446 -1.886031,0.6979 -3.530534,1.30431 -0.66012,0.24392 -1.053766,0.39443 -1.317232,0.5147 -0.131734,0.0601 -0.23111,0.11264 -0.31471,0.16536 -0.0836,0.0527 -0.151688,0.10594 -0.221175,0.16692 -0.09678,0.0847 -0.182331,0.1669 -0.258382,0.25011 -0.07605,0.0832 -0.142703,0.1672 -0.202055,0.25528 -0.05935,0.0881 -0.111444,0.18027 -0.15813,0.27957 -0.04669,0.0993 -0.08804,0.2061 -0.12609,0.32298 -0.05294,0.15753 -0.07895,0.23695 -0.09302,0.3297 -0.01406,0.0927 -0.01581,0.19871 -0.01912,0.40876 -0.0034,0.14567 -0.0016,0.25658 0.0067,0.35398 0.0083,0.0974 0.02291,0.18138 0.04599,0.27285 0.05129,0.19396 0.124806,0.37876 0.217041,0.55191 0.09224,0.17315 0.203338,0.33461 0.330729,0.48007 0.127391,0.14546 0.271124,0.27513 0.427881,0.38602 0.156757,0.1109 0.326612,0.20289 0.506946,0.27234 0.135668,0.0542 0.300932,0.11839 0.363802,0.14211 0.105886,0.044 0.4697,0.17632 1.439188,0.52865 0.201849,0.0746 0.394067,0.14585 0.430465,0.16278 0.03639,0.017 0.244637,0.0947 0.463021,0.1726 0.218385,0.0746 0.427137,0.15255 0.463537,0.1695 0.03638,0.017 0.201673,0.0778 0.363802,0.13539 0.165447,0.061 0.453523,0.16604 0.645439,0.23719 0.191917,0.0712 0.625017,0.2338 0.965833,0.35916 l 0.622184,0.23047 -0.07286,0.11834 c -0.195223,0.33116 -0.374369,0.6534 -0.540535,0.97307 -0.166167,0.31967 -0.319294,0.63678 -0.461988,0.95756 -0.142694,0.32079 -0.27517,0.64529 -0.399975,0.97979 -0.124805,0.33449 -0.242,0.67893 -0.354501,1.03973 -0.07944,0.25069 -0.367404,1.4161 -0.400492,1.6092 -0.0068,0.0474 -0.03608,0.21337 -0.06253,0.37259 -0.08278,0.45736 -0.152529,0.98936 -0.208773,1.62626 -0.01,0.0847 -0.02277,0.78614 -0.02946,1.55856 -0.02979,2.77462 -0.04664,3.6081 -0.05994,3.6928 -0.01,0.0474 -0.02614,0.18936 -0.03927,0.31471 -0.01,0.12535 -0.02696,0.25786 -0.03359,0.28835 -0.0035,0.0305 -0.01946,0.13199 -0.02946,0.22686 -0.0132,0.0915 -0.03664,0.24363 -0.05323,0.33848 -0.01654,0.0915 -0.03609,0.20682 -0.04599,0.25425 -0.0068,0.0474 -0.05322,0.26785 -0.102836,0.49144 -0.116638,0.53189 -0.262536,1.07841 -0.436665,1.63608 -0.17413,0.55766 -0.376303,1.12632 -0.604615,1.70119 -0.228311,0.57486 -0.483042,1.15593 -0.762227,1.73942 -0.279185,0.5835 -0.582754,1.16932 -0.909505,1.75287 -0.198527,0.35064 -0.379723,0.65816 -0.588595,0.9927 -0.208871,0.33455 -0.445611,0.69644 -0.754993,1.15549 -0.125733,0.18463 -0.209264,0.33346 -0.263033,0.47955 -0.02688,0.0731 -0.0464,0.14554 -0.05994,0.22118 -0.01355,0.0756 -0.02098,0.15442 -0.02429,0.24081 -0.0066,0.17277 -8.33e-4,0.30164 0.02481,0.4253 0.02564,0.12365 0.07085,0.24236 0.14366,0.39481 0.06783,0.14398 0.163349,0.27994 0.275435,0.39894 0.112087,0.119 0.241059,0.22055 0.376722,0.29507 0.08769,0.0474 0.342234,0.13157 0.709517,0.23616 0.367283,0.1046 0.847238,0.22976 1.384928,0.36019 0.109196,0.0271 0.221576,0.0542 0.248047,0.061 0.15882,0.044 0.632159,0.16646 0.744658,0.19017 0.07282,0.017 0.221528,0.0538 0.330729,0.0842 0.109186,0.0305 0.221573,0.0609 0.248047,0.0677 0.02654,0.007 0.413715,0.10546 0.860412,0.22066 0.446703,0.11179 0.847059,0.21307 0.886768,0.22324 0.04297,0.0102 0.16201,0.0405 0.264583,0.0677 0.105877,0.0305 0.308134,0.0816 0.453719,0.11886 0.145595,0.0339 0.35383,0.0879 0.463021,0.11834 0.144762,0.0398 0.288392,0.0624 0.428914,0.0682 0.140523,0.006 0.277854,-0.005 0.409795,-0.0326 0.13194,-0.0275 0.258739,-0.0715 0.377754,-0.13177 0.119016,-0.0602 0.230533,-0.13662 0.33228,-0.22893 0.06618,-0.0593 0.156752,-0.16277 0.232027,-0.2589 0.07528,-0.0961 0.135181,-0.185 0.138493,-0.21549 0.0035,-0.0102 0.02964,-0.0778 0.05943,-0.14883 0.03311,-0.0712 0.06289,-0.17294 0.07286,-0.22376 0.01,-0.0508 0.03964,-0.21009 0.06615,-0.35915 0.02979,-0.14568 0.05942,-0.32165 0.06925,-0.38602 0.01,-0.0644 0.0231,-0.15617 0.03307,-0.20361 0.02654,-0.14905 0.14262,-0.99241 0.159163,-1.17873 0.02312,-0.19987 0.04612,-0.43723 0.06925,-0.67438 0.01654,-0.18633 0.04964,-0.68775 0.06615,-1.0604 0.01654,-0.34218 0.01995,-1.99195 0.0036,-2.28668 -0.04629,-0.86388 -0.05613,-1.02618 -0.06925,-1.10071 -0.0068,-0.0474 -0.02309,-0.21365 -0.03307,-0.36949 -0.0132,-0.15923 -0.02684,-0.31517 -0.03669,-0.35243 -0.0068,-0.0372 -0.02,-0.15232 -0.02997,-0.25735 -0.01317,-0.10502 -0.02651,-0.22698 -0.03307,-0.2744 -0.0068,-0.0474 -0.02291,-0.16277 -0.03617,-0.25425 -0.01,-0.0948 -0.0265,-0.19994 -0.03307,-0.2372 -0.0068,-0.0338 -0.02001,-0.12516 -0.02997,-0.20308 -0.03641,-0.25747 -0.102258,-0.63692 -0.234611,-1.30432 -0.06286,-0.31506 -0.145995,-0.68928 -0.236161,-1.0666 -0.09017,-0.37731 -0.187439,-0.75777 -0.280087,-1.08469 -0.132351,-0.47769 -0.460094,-1.50423 -0.539501,-1.69395 -0.02313,-0.0576 -0.125631,-0.31481 -0.231511,-0.57568 l -0.188619,-0.47439 0.01964,-1.76165 c 0.01,-0.9689 0.02331,-1.80926 0.02997,-1.86345 0.0068,-0.0576 0.02291,-0.19998 0.03617,-0.32194 0.01319,-0.12195 0.03662,-0.30455 0.05323,-0.40618 0.01654,-0.10164 0.03612,-0.2474 0.04599,-0.32194 0.0298,-0.22867 0.09794,-0.566 0.181901,-0.92088 0.08396,-0.35487 0.183714,-0.7275 0.278019,-1.02732 0.107538,-0.33963 0.230413,-0.67817 0.365869,-1.01235 0.135457,-0.33417 0.283731,-0.66374 0.443384,-0.98495 0.159653,-0.3212 0.330437,-0.6341 0.510563,-0.93482 0.180126,-0.30073 0.369498,-0.58925 0.566374,-0.86197 0.16048,-0.2202 0.296446,-0.39649 0.451135,-0.57774 0.154689,-0.18125 0.328242,-0.3677 0.564823,-0.60823 0.194395,-0.20073 0.38774,-0.38821 0.582911,-0.56586 0.19517,-0.17765 0.392335,-0.34532 0.594795,-0.50539 0.202461,-0.16008 0.410054,-0.31295 0.626319,-0.46096 0.216264,-0.148 0.440896,-0.29109 0.677478,-0.43253 0.186951,-0.11095 0.350385,-0.20444 0.528133,-0.29766 0.177748,-0.0932 0.369681,-0.18612 0.614949,-0.29559 0.490538,-0.21893 1.192839,-0.50433 2.413807,-0.99218 0.420222,-0.16937 1.016224,-0.40692 1.32395,-0.53227 0.311031,-0.12535 0.88338,-0.35525 1.273824,-0.51108 0.390441,-0.15924 0.740818,-0.2983 0.777213,-0.31523 0.03641,-0.017 0.268292,-0.11185 0.513147,-0.2067 0.244858,-0.0982 0.68499,-0.27446 0.976168,-0.38964 1.369867,-0.55221 2.167044,-0.87402 2.729549,-1.09761 0.337503,-0.13551 0.642116,-0.25747 0.678512,-0.2744 0.03637,-0.017 0.280997,-0.11873 0.545703,-0.22376 0.641922,-0.25408 1.056003,-0.41657 1.175122,-0.47077 0.0563,-0.0204 0.224824,-0.0915 0.380339,-0.15245 0.155516,-0.0576 0.327396,-0.12896 0.380338,-0.15606 0.0563,-0.0237 0.205509,-0.0844 0.331246,-0.13178 0.244863,-0.0949 0.714396,-0.28471 1.769918,-0.71158 0.565815,-0.22868 0.874468,-0.34981 1.094507,-0.40359 0.110019,-0.0269 0.19788,-0.0369 0.284737,-0.0351 0.08686,0.002 0.172654,0.0153 0.278536,0.0357 0.0943,0.0178 0.180674,0.0398 0.260966,0.0672 0.08029,0.0274 0.154789,0.0601 0.225309,0.0992 0.07052,0.0392 0.137067,0.0848 0.202055,0.13798 0.06499,0.0532 0.128024,0.114 0.191719,0.18345 0.08148,0.0881 0.151075,0.18323 0.208773,0.28319 0.0577,0.1 0.103647,0.20481 0.137976,0.31264 0.03433,0.10783 0.05684,0.21851 0.06821,0.33021 0.01137,0.11171 0.01168,0.22431 5.17e-4,0.3359 -0.01117,0.11158 -0.03337,0.22222 -0.06666,0.32969 -0.0333,0.10747 -0.0778,0.21174 -0.132808,0.3111 -0.05501,0.0994 -0.120577,0.19387 -0.196887,0.28111 -0.07631,0.0872 -0.163252,0.16709 -0.260449,0.23823 -0.08931,0.0678 -0.430004,0.22703 -0.757577,0.35915 -0.64854,0.25747 -0.688376,0.27468 -0.810803,0.33228 -0.04628,0.0204 -0.178545,0.0744 -0.297656,0.11834 -0.291189,0.1118 -1.654642,0.65749 -1.737362,0.69815 -0.03639,0.017 -0.205085,0.0847 -0.37052,0.15245 -0.168756,0.0644 -0.446925,0.17282 -0.612366,0.23719 -0.168748,0.0678 -0.337221,0.13552 -0.37362,0.15245 -0.03641,0.017 -0.370758,0.1522 -0.744658,0.30127 -0.373897,0.14906 -0.982599,0.39612 -1.356506,0.54519 -0.373906,0.15245 -0.790891,0.3189 -0.926559,0.3731 -0.486407,0.18972 -2.964936,1.18919 -3.067513,1.23662 -0.0563,0.0271 -0.119163,0.0506 -0.139009,0.0506 -0.01983,0 -0.06248,0.0168 -0.0956,0.0336 -0.02981,0.0204 -0.377468,0.1625 -0.767911,0.31833 -1.694137,0.67757 -3.430978,1.37912 -3.920691,1.57561 -0.199359,0.0822 -0.40076,0.17523 -0.600997,0.2775 -0.200238,0.10227 -0.399573,0.2139 -0.59583,0.33332 -0.196256,0.11942 -0.389292,0.24673 -0.576709,0.38034 -0.187416,0.1336 -0.368886,0.27323 -0.542602,0.41806 -0.215074,0.17955 -0.420681,0.36362 -0.567924,0.50591 -0.147243,0.14229 -0.236167,0.24277 -0.219625,0.25632 0.01654,0.0102 0.08582,0.0408 0.158647,0.0646 0.07281,0.0238 0.162042,0.0543 0.198437,0.0713 0.0364,0.017 0.446782,0.1691 0.910022,0.33849 1.469137,0.54204 2.855659,1.05051 3.027722,1.11827 0.155519,0.061 1.637957,0.60598 2.035018,0.74828 0.09926,0.0372 0.211655,0.0782 0.248047,0.0951 0.03639,0.017 0.244634,0.0946 0.463021,0.1726 0.218387,0.0779 0.45028,0.16284 0.513147,0.18655 0.134558,0.0517 0.347398,0.13069 0.552421,0.20671 0.113066,-0.23001 0.217058,-0.4705 0.337964,-0.69143 0.254883,-0.46576 0.527281,-0.91145 0.817004,-1.33687 0.289723,-0.42542 0.596828,-0.83087 0.921391,-1.21595 0.162282,-0.19253 0.32872,-0.37978 0.499711,-0.56224 0.170992,-0.18245 0.346365,-0.3599 0.526066,-0.53226 0.366738,-0.34474 0.746539,-0.6692 1.138949,-0.97359 0.392409,-0.30439 0.797865,-0.58861 1.215946,-0.85266 0.418082,-0.26405 0.848675,-0.50803 1.292428,-0.73174 0.443753,-0.22371 0.900518,-0.42744 1.369942,-0.61081 0.476759,-0.18337 0.957162,-0.34358 1.441256,-0.48111 0.484094,-0.13753 0.972047,-0.25248 1.463476,-0.34417 0.491429,-0.0917 0.986417,-0.16034 1.485181,-0.20618 0.498764,-0.0459 1.001303,-0.0687 1.507402,-0.0687 0.469424,0 0.928439,0.0166 1.377693,0.0496 0.449254,0.033 0.888666,0.0823 1.317749,0.14831 0.429084,0.066 0.847858,0.14851 1.256771,0.24753 0.408913,0.099 0.807567,0.21472 1.196309,0.34675 0.388743,0.12469 0.765777,0.26126 1.130681,0.40979 0.364904,0.14853 0.717784,0.30926 1.05885,0.48162 0.341066,0.17237 0.670308,0.35674 0.987537,0.55294 0.317228,0.19621 0.622316,0.40421 0.915706,0.62425 0.300725,0.21271 0.588976,0.43455 0.86403,0.6656 0.275053,0.23104 0.537133,0.47098 0.786515,0.72037 0.249382,0.24938 0.485807,0.50794 0.709518,0.77566 0.22371,0.26772 0.434997,0.5449 0.633036,0.83096 0.0953,0.13273 0.177915,0.26991 0.267684,0.40462 0.08586,-0.0318 0.233945,-0.0868 0.259932,-0.0966 0.06283,-0.0238 0.300859,-0.11196 0.529167,-0.19327 0.228316,-0.0847 0.897031,-0.3286 1.489315,-0.54881 0.592279,-0.21682 1.200983,-0.44056 1.356506,-0.49816 0.155515,-0.0576 0.310868,-0.11536 0.347266,-0.13229 0.03635,-0.0136 0.446779,-0.16599 0.910022,-0.33538 0.463235,-0.17277 1.022361,-0.37603 1.240751,-0.45734 0.218375,-0.0779 0.450283,-0.16232 0.513147,-0.18603 0.231617,-0.0813 0.57874,-0.21371 0.644922,-0.24081 0.03637,-0.017 0.281513,-0.10461 0.54622,-0.19947 0.264712,-0.0948 0.509299,-0.18304 0.545703,-0.19999 0.03637,-0.017 0.608749,-0.23047 1.273824,-0.47439 0.665081,-0.24393 1.356937,-0.49787 1.538924,-0.56224 0.181985,-0.0678 0.449711,-0.16593 0.595312,-0.22014 0.519481,-0.18633 1.823171,-0.67123 1.995227,-0.73898 0.109193,-0.0432 0.218076,-0.097 0.323495,-0.16019 0.105418,-0.0631 0.207797,-0.13548 0.304374,-0.21446 0.09658,-0.079 0.187081,-0.1646 0.269751,-0.25528 0.08267,-0.0907 0.15748,-0.18649 0.221175,-0.28474 0.102573,-0.15244 0.237891,-0.42671 0.267684,-0.53175 0.0032,-0.0204 0.03332,-0.1185 0.06305,-0.22014 0.03637,-0.12534 0.05615,-0.3218 0.05943,-0.60978 0.0016,-0.17786 -6.17e-4,-0.29398 -0.01137,-0.39223 -0.01075,-0.0982 -0.03009,-0.17853 -0.06149,-0.28525 -0.05791,-0.19056 -0.135502,-0.37118 -0.230993,-0.53899 -0.09549,-0.1678 -0.20892,-0.32318 -0.336931,-0.4625 -0.12801,-0.13932 -0.270865,-0.26281 -0.42633,-0.36794 -0.155465,-0.10512 -0.323409,-0.19161 -0.501261,-0.25683 -0.119118,-0.0406 -0.257936,-0.0985 -0.314193,-0.11885 -0.05296,-0.0238 -0.569104,-0.2132 -1.141533,-0.42323 -0.572432,-0.21005 -1.072067,-0.39287 -1.108459,-0.4098 -0.03639,-0.017 -0.238549,-0.0916 -0.447001,-0.1695 -0.744496,-0.27102 -1.012481,-0.36932 -1.158069,-0.42013 -0.08278,-0.0304 -0.178575,-0.0642 -0.214974,-0.0811 -0.0364,-0.017 -0.407112,-0.15606 -0.82734,-0.30851 -0.416911,-0.15245 -0.79043,-0.28795 -0.826823,-0.30489 -0.03636,-0.017 -0.281507,-0.10822 -0.546219,-0.20308 -0.26471,-0.0948 -0.558991,-0.20355 -0.65164,-0.24082 -0.09596,-0.0339 -0.255128,-0.0948 -0.347783,-0.12867 -0.09596,-0.0372 -0.390031,-0.14544 -0.65474,-0.2403 -0.456626,-0.165996 -0.70154,-0.257512 -0.959631,-0.359145 -0.06284,-0.02371 -0.241879,-0.08843 -0.397392,-0.142627 -0.155512,-0.0576 -0.423246,-0.155774 -0.595313,-0.220142 -0.172058,-0.06437 -0.694824,-0.257171 -1.158069,-0.429948 -1.068757,-0.392983 -1.241094,-0.454345 -1.60507,-0.593245 -0.162135,-0.06437 -0.5064,-0.18965 -0.761193,-0.28112 -0.972763,-0.355724 -2.153535,-0.789099 -2.216403,-0.819588 -0.03638,-0.01694 -0.179049,-0.06804 -0.314709,-0.118856 -0.254773,-0.09147 -1.54823,-0.569071 -1.753381,-0.646989 -0.122427,-0.04404 -0.582774,-0.213407 -1.323951,-0.487825 -0.489715,-0.179552 -2.368933,-0.873949 -3.722253,-1.378727 -0.47317,-0.176165 -0.873635,-0.321887 -0.893486,-0.328663 -0.01652,-0.0071 -0.07598,-0.02722 -0.125573,-0.04754 -0.05296,-0.02371 -0.0991,-0.04031 -0.109038,-0.04031 -0.0071,0 -0.605516,-0.220191 -1.330151,-0.487825 -0.721351,-0.267643 -1.505848,-0.559424 -1.744079,-0.647506 -0.436771,-0.162617 -0.789164,-0.28286 -1.089856,-0.37052 -0.300693,-0.08766 -0.549833,-0.142482 -0.779798,-0.174666 -0.09926,-0.01355 -0.218256,-0.03043 -0.264583,-0.03721 -0.09927,-0.01694 -1.346679,-0.04093 -1.363224,-0.02739 z"
         style="fill:#333333;stroke:#ffffff;stroke-width:3.175;stroke-linecap:round;stroke-linejoin:round;paint-order:stroke markers fill"
         id="path94" />
    </g>
  </g>
</svg>
