<?xml version="1.0" encoding="UTF-8" standalone="no"?><!DOCTYPE svg PUBLIC "-//W3C//DTD SVG 1.1//EN" "http://www.w3.org/Graphics/SVG/1.1/DTD/svg11.dtd"><svg width="55.7mm" height="19mm" viewBox="0 0 1183 417" version="1.1" xmlns="http://www.w3.org/2000/svg" xmlns:xlink="http://www.w3.org/1999/xlink" xml:space="preserve" xmlns:serif="http://www.serif.com/" style="fill-rule:evenodd;clip-rule:evenodd;stroke-linejoin:round;stroke-miterlimit:2;"><g id="Calque_2"><g id="Calque_1-2"><path d="M396.64,318.57l-93.76,0l0,28.7l65.06,0l0.07,1.49c-8.76,25 -28.85,39.39 -60.54,39.39c-36.62,0 -64.23,-29.34 -64.23,-66.46c0,-38.59 28.75,-69.05 66.87,-69.05c29.22,0 50,14.34 61.85,40l26.89,-12.4c-16.62,-36 -48.13,-55.81 -88.74,-55.81c-54.1,0 -96.47,42.74 -96.47,97.3c0,53.11 41.21,94.71 93.83,94.71c27.46,0 48.19,-11.08 63.17,-28.37l2.7,21.61l23.3,0l0,-88.39l0.15,-0.89l-0.15,0l0,-1.83Z" style="fill:#e1251b;fill-rule:nonzero;"/><path d="M396.64,163.29l-148.28,0l0,-47.33l131.2,0l0,-27.44l-131.2,0l0,-47.32l148.28,0l0,-28.2l-178.49,0l0,178.49l178.49,0l0,-28.2Z" style="fill:#e1251b;fill-rule:nonzero;"/><path d="M148.03,86.76l-117.82,0l0,-73.76l-30.21,0l0,178.49l30.21,0l0,-76.28l117.82,-0l0,76.28l30.46,0l0,-178.49l-30.46,0l0,73.76Z" style="fill:#e1251b;fill-rule:nonzero;"/><path d="M104.35,381.19l-0,-121.59l74.14,0l0,-28.45l-178.49,-0l0,28.45l74.14,0l0,121.59l-74.14,-0l0,28.45l178.49,-0l0,-28.45l-74.14,-0Z" style="fill:#e1251b;fill-rule:nonzero;"/><path d="M473.29,13l12.09,0l-18.64,51l-11.74,0l-18.7,-51l12.53,0l12.3,35.9l12.16,-35.9Z" style="fill:#e1251b;fill-rule:nonzero;"/><path d="M494.79,64l0,-51l18.49,0c15.33,0 25.61,9.79 25.61,25.55c0,15.76 -10.28,25.45 -25.68,25.45l-18.42,0Zm18,-10.72c7.85,0 14.26,-4.54 14.26,-14.75c0,-10.21 -6.41,-14.83 -14.26,-14.83l-6.61,0l0,29.6l6.61,-0.02Z" style="fill:#e1251b;fill-rule:nonzero;"/><path d="M686.28,64.13l0,-20.3l-20.37,0l0,20.3l-11.38,0l0,-51l11.38,0l0,20l20.37,0l0,-20l11.44,0l0,51l-11.44,0Z" style="fill:#e1251b;fill-rule:nonzero;"/><path d="M739.32,53.77l-19.72,0l-3.67,10.36l-11.93,0l19.22,-51l13.17,0l19,51l-12.39,0l-3.68,-10.36Zm-16,-10.37l12.38,0l-6.12,-17.63l-6.26,17.63Z" style="fill:#e1251b;fill-rule:nonzero;"/><path d="M759.69,45.71l0,-32.61l11.38,-0l0,31.67c0,6.19 3.45,9.29 8.85,9.29c5.4,0 8.85,-3.1 8.85,-9.29l0,-31.67l11.37,-0l0,32.61c0,12.81 -9,19.57 -20.22,19.57c-11.22,0 -20.23,-6.76 -20.23,-19.57Z" style="fill:#e1251b;fill-rule:nonzero;"/><path d="M833.69,24l0,40.13l-11.38,0l-0,-40.13l-15.69,0l0,-10.9l42.83,0l0,10.9l-15.76,0Z" style="fill:#e1251b;fill-rule:nonzero;"/><path d="M856.43,64.13l-0,-51l32.32,0l-0,10.69l-21,0l-0,9.72l19,0l-0,10l-19,0l-0,9.79l21,0l-0,10.8l-32.32,0Z" style="fill:#e1251b;fill-rule:nonzero;"/><path d="M915,64.13l0,-51l32.32,0l0,10.69l-21,0l0,9.72l19,0l0,10l-19,0l0,9.79l21,0l0,10.8l-32.32,0Zm18.81,-54.63l-9.72,0l7.48,-9.5l13,0l-10.76,9.5Z" style="fill:#e1251b;fill-rule:nonzero;"/><path d="M953.17,38.72c-0,-15.9 12.09,-26.7 26.34,-26.7c15.33,0 22.1,9.86 23.75,17.2l-10.72,3.39c-0.79,-3.53 -4,-9.51 -13,-9.51c-6.87,0 -14.54,4.9 -14.54,15.62c-0,9.58 7.06,15.12 14.69,15.12c8.85,-0 12.38,-5.9 13.38,-9.57l10.87,3.09c-1.65,7.06 -8.42,17.85 -24.25,17.85c-14.69,-0 -26.52,-10.58 -26.52,-26.49Z" style="fill:#e1251b;fill-rule:nonzero;"/><path d="M1034.79,12c14.32,0 26.49,10.44 26.49,26.63c0,16.19 -12.17,26.56 -26.49,26.56c-14.32,0 -26.56,-10.43 -26.56,-26.56c0,-16.13 12.17,-26.63 26.56,-26.63Zm0,42c7,0 14.68,-4.75 14.68,-15.4c0,-10.65 -7.63,-15.48 -14.68,-15.48c-7.05,0 -14.79,4.81 -14.79,15.46c0,10.65 7.67,15.42 14.79,15.42Z" style="fill:#e1251b;fill-rule:nonzero;"/><path d="M1069.84,64.13l0,-51l11.38,0l0,40.13l22,0l0,10.87l-33.38,0Z" style="fill:#e1251b;fill-rule:nonzero;"/><path d="M1110.15,64.13l0,-51l32.32,0l0,10.69l-21,0l0,9.72l19,0l0,10l-19,0l0,9.79l21,0l0,10.8l-32.32,0Z" style="fill:#e1251b;fill-rule:nonzero;"/><path d="M654.53,150.52l0,-51l18.47,0c15.33,0 25.63,9.79 25.63,25.55c0,15.76 -10.3,25.48 -25.7,25.48l-18.4,-0.03Zm18,-10.72c7.85,0 14.25,-4.54 14.25,-14.76c0,-10.22 -6.4,-14.83 -14.25,-14.83l-6.62,0l0,29.59l6.62,0Z" style="fill:#e1251b;fill-rule:nonzero;"/><path d="M711.32,99.13c4.32,0 6.7,3.53 6.7,7.27c0,9.93 -7.06,13.46 -11.81,13.82l0,-4.89c2.52,-0.29 5.76,-2.16 6.12,-5.48c-0.504,0.193 -1.04,0.291 -1.58,0.29c-0.139,0.011 -0.278,0.017 -0.417,0.017c-2.858,-0 -5.21,-2.352 -5.21,-5.21c-0,-0.093 0.002,-0.185 0.007,-0.277c0,-3.02 2.52,-5.54 6.19,-5.54Z" style="fill:#e1251b;fill-rule:nonzero;"/><rect x="726.37" y="99.52" width="11.51" height="51" style="fill:#e1251b;fill-rule:nonzero;"/><path d="M781.72,150.52l-21.02,-33.52l0,33.54l-11.3,0l-0,-51l13.82,0l19.15,31l-0,-31l11.37,0l-0,51l-12.02,-0.02Z" style="fill:#e1251b;fill-rule:nonzero;"/><path d="M843.19,150.52l-0.72,-5.18c-2.24,3.24 -7.06,6.26 -14.33,6.26c-14.14,0 -25.84,-10.43 -25.84,-26.6c0,-16.17 12.17,-26.63 26.56,-26.63c14.61,0 21.38,8.64 23.61,15.76l-10.94,3.87c-0.79,-3.17 -4.17,-8.93 -12.67,-8.93c-6.91,-0 -15,4.61 -15,16c0,10.66 7,16.2 15.33,16.2c8.33,-0 12,-5.47 12.6,-8.35l-15.38,-0l0,-9.65l26,-0l0,27.28l-9.22,-0.03Z" style="fill:#e1251b;fill-rule:nonzero;"/><path d="M862,150.52l0,-51l32.32,0l0,10.72l-20.9,0l-0,9.72l19,0l-0,10l-19,0l-0,9.79l21,0l-0,10.79l-32.42,-0.02Zm18.9,-54.63l-9.72,0l7.49,-9.5l13,0l-10.77,9.5Z" style="fill:#e1251b;fill-rule:nonzero;"/><path d="M936.18,150.52l-21,-33.54l-0,33.54l-11.3,0l-0,-51l13.82,0l19.15,31l-0,-31l11.35,0l-0,51l-12.02,0Z" style="fill:#e1251b;fill-rule:nonzero;"/><rect x="959.71" y="99.52" width="11.52" height="51" style="fill:#e1251b;fill-rule:nonzero;"/><path d="M982.75,150.52l0,-51l32.32,0l0,10.72l-21,0l0,9.72l19,0l0,10l-19,0l0,9.79l21,0l0,10.79l-32.32,-0.02Z" style="fill:#e1251b;fill-rule:nonzero;"/><path d="M1040,131.52l-4,0l0,19l-11.37,0l0,-51l20.22,0c10.08,0 16.56,6.91 16.56,16c0.214,6.486 -3.911,12.375 -10.08,14.39l10.36,20.66l-12.52,0l-9.17,-19.05Zm2.66,-9.79c4.68,0 7.2,-2.59 7.2,-6.19c0,-3.81 -2.52,-6.19 -7.2,-6.19l-6.69,0l0,12.38l6.69,0Z" style="fill:#e1251b;fill-rule:nonzero;"/><rect x="1070.2" y="99.52" width="11.52" height="51" style="fill:#e1251b;fill-rule:nonzero;"/><path d="M1093.23,150.52l0,-51l32.32,0l0,10.72l-21,0l0,9.72l19,0l0,10l-19,0l0,9.79l21,0l0,10.79l-32.32,-0.02Z" style="fill:#e1251b;fill-rule:nonzero;"/><path d="M654.53,236.91l0,-51l32.32,0l0,10.69l-20.94,0l0,9.72l19,0l0,10l-19,0l0,9.79l21,0l0,10.79l-32.38,0.01Z" style="fill:#e1251b;fill-rule:nonzero;"/><path d="M718.88,196.75l0,40.16l-11.37,0l0,-40.16l-15.69,0l0,-10.87l42.83,0l0,10.87l-15.77,0Z" style="fill:#e1251b;fill-rule:nonzero;"/><path d="M756.46,236.91l0,-51l18.54,0c15.33,0 25.63,9.79 25.63,25.55c0,15.76 -10.3,25.48 -25.7,25.48l-18.47,-0.03Zm18,-10.72c7.85,0 14.25,-4.54 14.25,-14.76c0,-10.22 -6.4,-14.83 -14.25,-14.83l-6.62,0l0,29.59l6.62,0Z" style="fill:#e1251b;fill-rule:nonzero;"/><path d="M809.29,236.91l0,-51l32.31,0l0,10.69l-20.94,0l0,9.72l19,0l0,10l-19,0l0,9.79l21,0l0,10.79l-32.37,0.01Z" style="fill:#e1251b;fill-rule:nonzero;"/><path d="M905.74,236.91l-0.72,-5.18c-2.24,3.27 -7.02,6.27 -14.33,6.27c-14.18,0 -25.84,-10.43 -25.84,-26.56c0,-16.13 12.15,-26.64 26.56,-26.64c14.61,0 21.38,8.64 23.61,15.76l-10.94,3.82c-0.79,-3.17 -4.17,-8.93 -12.67,-8.93c-6.91,0 -15,4.61 -15,16c0,10.65 7,16.2 15.33,16.2c8.33,0 11.95,-5.47 12.6,-8.35l-15.34,0l0,-9.65l26,0l0,27.28l-9.26,-0.02Z" style="fill:#e1251b;fill-rule:nonzero;"/><path d="M924.59,236.91l0,-51l32.32,0l0,10.69l-20.91,0l-0,9.72l19,0l-0,10l-19,0l-0,9.79l21,0l-0,10.79l-32.41,0.01Z" style="fill:#e1251b;fill-rule:nonzero;"/><path d="M991.53,201.28c-0.36,-2.37 -2.3,-6.4 -8.49,-6.4c-4.25,0 -7,2.66 -7,5.47c0,2.44 1.51,4.24 5,4.89l6.84,1.3c9.72,1.8 14.76,8.06 14.76,15.33c0,8 -6.7,16.12 -18.86,16.12c-14.11,0 -20.15,-9.14 -20.87,-16.34l10.43,-2.52c0.43,4.68 3.6,8.79 10.58,8.79c4.47,0 7.2,-2.16 7.2,-5.33c0,-2.59 -2.09,-4.46 -5.47,-5.11l-7,-1.3c-8.64,-1.65 -13.89,-7.41 -13.89,-15c0,-9.64 8.49,-16.41 18.28,-16.41c12.74,0 17.56,7.63 18.64,13.6l-10.15,2.91Z" style="fill:#e1251b;fill-rule:nonzero;"/><path d="M1033.42,196.75l0,40.16l-11.37,0l0,-40.16l-15.69,0l0,-10.87l42.83,0l0,10.87l-15.77,0Z" style="fill:#e1251b;fill-rule:nonzero;"/><rect x="1056.17" y="185.91" width="11.51" height="51" style="fill:#e1251b;fill-rule:nonzero;"/><path d="M1102.81,184.8c14.32,0 26.49,10.44 26.49,26.63c0,16.19 -12.17,26.57 -26.49,26.57c-14.32,0 -26.56,-10.43 -26.56,-26.56c0,-16.13 12.16,-26.64 26.56,-26.64Zm0,42c7,0 14.68,-4.75 14.68,-15.4c0,-10.65 -7.63,-15.48 -14.68,-15.48c-7.05,0 -14.76,4.83 -14.76,15.48c0,10.65 7.63,15.36 14.76,15.36l0,0.04Z" style="fill:#e1251b;fill-rule:nonzero;"/><path d="M1170.18,236.91l-21,-33.54l0,33.54l-11.3,0l0,-51l13.82,0l19.15,31l0,-31l11.37,0l0,51l-12.04,0Z" style="fill:#e1251b;fill-rule:nonzero;"/><path d="M654.53,323.3l0,-51l18.47,0c15.33,0 25.63,9.79 25.63,25.55c0,15.76 -10.27,25.45 -25.63,25.45l-18.47,0Zm18,-10.72c7.85,0 14.25,-4.54 14.25,-14.76c0,-10.22 -6.4,-14.82 -14.25,-14.82l-6.62,0l0,29.59l6.62,-0.01Z" style="fill:#e1251b;fill-rule:nonzero;"/><path d="M706.86,304.88l0,-32.61l11.37,0l0,31.67c0,6.19 3.46,9.29 8.86,9.29c5.4,0 8.85,-3.1 8.85,-9.29l0,-31.67l11.37,0l0,32.61c0,12.81 -9,19.57 -20.22,19.57c-11.22,0 -20.23,-6.76 -20.23,-19.57Z" style="fill:#e1251b;fill-rule:nonzero;"/><path d="M772.07,297.89c0,-15.9 12.1,-26.7 26.35,-26.7c15.33,0 22.09,9.86 23.75,17.2l-10.72,3.39c-0.8,-3.53 -4,-9.51 -13,-9.51c-6.84,0 -14.54,4.9 -14.54,15.62c0,9.58 7,15.12 14.68,15.12c8.85,0 12.38,-5.9 13.39,-9.57l10.87,3.09c-1.66,7.06 -8.42,17.85 -24.26,17.85c-14.71,0 -26.52,-10.58 -26.52,-26.49Z" style="fill:#e1251b;fill-rule:nonzero;"/><path d="M859.24,312.94l-19.72,0l-3.67,10.36l-12,0l19.22,-51l13.17,0l19,51l-12.33,0l-3.67,-10.36Zm-16,-10.37l12.38,0l-6.12,-17.63l-6.26,17.63Z" style="fill:#e1251b;fill-rule:nonzero;"/><path d="M913.94,323.3l-21,-33.54l0,33.54l-11.3,0l0,-51l13.82,0l19.15,31l0,-31l11.39,0l-0,51l-12.06,0Z" style="fill:#e1251b;fill-rule:nonzero;"/><path d="M960,283.14l0,40.16l-11.37,0l0,-40.16l-15.69,0l0,-10.87l42.83,0l0,10.87l-15.77,0Z" style="fill:#e1251b;fill-rule:nonzero;"/><path d="M1005,271.19c14.33,0 26.49,10.44 26.49,26.63c0,16.19 -12.16,26.56 -26.49,26.56c-14.33,0 -26.57,-10.38 -26.57,-26.56c0,-16.18 12.17,-26.63 26.57,-26.63Zm0,42c7.06,0 14.69,-4.75 14.69,-15.4c0,-10.65 -7.63,-15.48 -14.69,-15.48c-7.06,0 -14.75,4.83 -14.75,15.48c0,10.65 7.62,15.36 14.75,15.36l0,0.04Z" style="fill:#e1251b;fill-rule:nonzero;"/><path d="M1072.36,323.3l-21,-33.54l-0,33.54l-11.36,0l-0,-51l13.82,0l19.15,31l-0,-31l11.37,0l-0,51l-11.98,0Z" style="fill:#e1251b;fill-rule:nonzero;"/><path d="M654.53,409.69l0,-51l18.47,0c15.33,0 25.63,9.79 25.63,25.55c0,15.76 -10.3,25.48 -25.7,25.48l-18.4,-0.03Zm18,-10.72c7.85,-0 14.25,-4.54 14.25,-14.76c0,-10.22 -6.4,-14.83 -14.25,-14.83l-6.62,-0l0,29.62l6.62,-0.03Z" style="fill:#e1251b;fill-rule:nonzero;"/><path d="M707.37,409.69l0,-51l32.31,0l0,10.72l-20.94,0l0,9.72l19,0l0,10l-19,0l0,9.79l21,0l0,10.79l-32.37,-0.02Z" style="fill:#e1251b;fill-rule:nonzero;"/><path d="M795.47,358.66l12.09,0l-18.64,51l-11.74,0l-18.71,-51l12.53,0l12.31,35.92l12.16,-35.92Z" style="fill:#e1251b;fill-rule:nonzero;"/><path d="M840,399.33l-19.77,0l-3.67,10.36l-11.95,0l19.22,-51l13.17,0l19,51l-12.38,0l-3.62,-10.36Zm-16,-10.33l12.38,0l-6.12,-17.63l-6.26,17.63Z" style="fill:#e1251b;fill-rule:nonzero;"/><path d="M860.32,391.27l0,-32.61l11.37,0l0,31.67c0,6.19 3.46,9.29 8.85,9.29c5.39,0 8.86,-3.1 8.86,-9.29l0,-31.67l11.37,0l0,32.61c0,12.81 -9,19.57 -20.23,19.57c-11.23,0 -20.22,-6.76 -20.22,-19.57Z" style="fill:#e1251b;fill-rule:nonzero;"/><path d="M911.78,409.69l0,-51l18.5,0c15.33,0 25.62,9.79 25.62,25.55c0,15.76 -10.29,25.48 -25.69,25.48l-18.43,-0.03Zm18,-10.72c7.84,-0 14.25,-4.54 14.25,-14.76c0,-10.22 -6.41,-14.83 -14.25,-14.83l-6.63,-0l0,29.62l6.63,-0.03Z" style="fill:#e1251b;fill-rule:nonzero;"/></g></g></svg>