<?xml version="1.0" encoding="UTF-8" standalone="no"?><!DOCTYPE svg PUBLIC "-//W3C//DTD SVG 1.1//EN" "http://www.w3.org/Graphics/SVG/1.1/DTD/svg11.dtd"><svg width="219px" height="22px" viewBox="0 0 219 22" version="1.1" xmlns="http://www.w3.org/2000/svg" xmlns:xlink="http://www.w3.org/1999/xlink" xml:space="preserve" xmlns:serif="http://www.serif.com/" style="fill-rule:evenodd;clip-rule:evenodd;"><path d="M136.55,1.041l1.36,-0l1.75,5.54l0.02,-0l1.79,-5.54l1.31,-0l-0,6.97l-0.84,-0l-0,-6.01l-0.01,-0l-1.98,6.01l-0.64,-0l-1.9,-6.01l-0.02,-0l-0,6.01l-0.84,-0l-0,-6.97Z" style="fill:#66696f;fill-rule:nonzero;"/><path d="M147.69,5.431l-1.07,-3.47l-1.16,3.47l2.23,-0Zm-0.57,-4.39l2.28,7l-0.94,-0l-0.56,-1.82l-2.64,-0l-0.56,1.82l-0.88,-0l2.34,-7l0.96,-0Z" style="fill:#66696f;fill-rule:nonzero;"/><path d="M153.32,2.051c-0.361,-0.211 -0.772,-0.321 -1.19,-0.32c-0.03,-0.003 -0.06,-0.004 -0.09,-0.004c-0.549,-0 -1,0.451 -1,1c-0,0.001 -0,0.002 0,0.004c0,0.44 0.18,0.72 1.18,1.3c1,0.58 1.44,1.23 1.44,2c0.003,0.045 0.005,0.09 0.005,0.135c-0,1.025 -0.844,1.87 -1.87,1.87c-0.045,-0 -0.09,-0.002 -0.135,-0.005c-0.503,0.007 -1.001,-0.096 -1.46,-0.3l0,-0.91c0.4,0.257 0.856,0.411 1.33,0.45c0.033,0.003 0.067,0.004 0.101,0.004c0.612,0 1.12,-0.493 1.139,-1.104c0,-0.54 -0.14,-0.85 -1.08,-1.42c-1.26,-0.76 -1.54,-1.19 -1.54,-2.08c-0,-0.004 -0,-0.007 -0,-0.011c-0,-0.96 0.79,-1.75 1.75,-1.75c0.063,0 0.127,0.004 0.19,0.011c0.43,-0.001 0.857,0.077 1.26,0.23l-0.03,0.9Z" style="fill:#66696f;fill-rule:nonzero;"/><path d="M156.09,1.801l-1.6,-0l0,-0.76l4.07,-0l0,0.76l-1.59,-0l0,6.21l-0.88,-0l0,-6.21Z" style="fill:#66696f;fill-rule:nonzero;"/><path d="M159.71,1.041l3.25,-0l0,0.76l-2.37,-0l0,2.21l2.26,-0l0,0.76l-2.26,-0l0,2.48l2.5,-0l0,0.76l-3.38,-0l0,-6.97Z" style="fill:#66696f;fill-rule:nonzero;"/><path d="M165.46,4.131l0.67,-0c0.044,0.005 0.088,0.007 0.131,0.007c0.642,0 1.17,-0.528 1.17,-1.17c0,-0.019 -0,-0.038 -0.001,-0.057c0,-0.78 -0.51,-1.15 -1.28,-1.15l-0.69,-0l0,2.37Zm-0.89,-3.09l1.79,-0c0.534,-0.044 1.064,0.129 1.47,0.48c0.35,0.352 0.539,0.834 0.52,1.33c0.047,0.839 -0.584,1.576 -1.42,1.66c0.369,0.047 0.672,0.318 0.76,0.68l1,2.8l-1,-0l-0.8,-2.36c-0.101,-0.515 -0.59,-0.868 -1.11,-0.8l-0.32,-0l0,3.18l-0.89,-0l0,-6.97Z" style="fill:#66696f;fill-rule:nonzero;"/><path d="M174.76,7.361c0.92,-0 1.7,-0.76 1.7,-2.91c0,-1.41 -0.44,-2.76 -1.62,-2.76c-0.92,-0 -1.7,0.76 -1.7,2.9c0,1.41 0.44,2.77 1.62,2.77m0.08,-6.39c1.55,-0 2.54,1.33 2.54,3.48c0,2.41 -1,3.63 -2.62,3.63c-1.62,-0 -2.53,-1.33 -2.53,-3.49c0,-2.4 1,-3.62 2.61,-3.62" style="fill:#66696f;fill-rule:nonzero;"/><path d="M178.82,1.041l3.11,-0l0,0.76l-2.23,-0l0,2.21l2.12,-0l0,0.76l-2.12,-0l0,3.24l-0.88,-0l0,-6.97Z" style="fill:#66696f;fill-rule:nonzero;"/><path d="M188.74,2.051c-0.357,-0.212 -0.765,-0.322 -1.18,-0.32c-0.03,-0.003 -0.06,-0.004 -0.09,-0.004c-0.549,-0 -1,0.451 -1,1c-0,0.001 -0,0.002 0,0.004c0,0.44 0.18,0.72 1.18,1.3c1,0.58 1.43,1.23 1.43,2c0.004,0.048 0.006,0.097 0.006,0.145c-0,1.021 -0.84,1.86 -1.86,1.86c-0.049,0 -0.098,-0.001 -0.146,-0.005c-0.503,0.007 -1.001,-0.096 -1.46,-0.3l0,-0.91c0.397,0.255 0.85,0.41 1.32,0.45c0.037,0.003 0.074,0.005 0.111,0.005c0.612,0 1.12,-0.493 1.139,-1.105c0,-0.54 -0.14,-0.85 -1.08,-1.42c-1.26,-0.76 -1.54,-1.19 -1.54,-2.08c0.024,-0.943 0.806,-1.706 1.749,-1.706c0.047,0 0.094,0.002 0.141,0.006c0.427,-0.001 0.851,0.077 1.25,0.23l0.03,0.85Z" style="fill:#66696f;fill-rule:nonzero;"/><path d="M194.62,7.871c-0.411,0.132 -0.839,0.203 -1.27,0.21c-2.21,-0 -3.14,-1.68 -3.14,-3.57c0,-2.17 1.27,-3.54 3.09,-3.54c0.453,-0.012 0.903,0.073 1.32,0.25l0,0.86c-0.394,-0.24 -0.849,-0.362 -1.31,-0.35c-1.224,0.059 -2.199,1.082 -2.199,2.307c0,0.098 0.007,0.196 0.019,0.293c0,1.8 0.72,3 2.24,3c0.438,0.001 0.869,-0.113 1.25,-0.33l0,0.87Z" style="fill:#66696f;fill-rule:nonzero;"/><rect x="196.07" y="1.041" width="0.88" height="6.97" style="fill:#66696f;"/><path d="M198.68,1.041l3.25,-0l0,0.76l-2.37,-0l0,2.21l2.26,-0l0,0.76l-2.26,-0l0,2.48l2.5,-0l0,0.76l-3.38,-0l0,-6.97Z" style="fill:#66696f;fill-rule:nonzero;"/><path d="M203.49,1.041l1.09,-0l2.63,5.75l0.02,-0l0,-5.75l0.84,-0l0,6.97l-1.09,-0l-2.63,-5.71l-0.02,-0l0,5.71l-0.84,-0l0,-6.97Z" style="fill:#66696f;fill-rule:nonzero;"/><path d="M213.91,7.871c-0.411,0.132 -0.839,0.203 -1.27,0.21c-2.2,-0 -3.13,-1.68 -3.13,-3.57c0,-2.17 1.26,-3.54 3.08,-3.54c0.453,-0.012 0.903,0.073 1.32,0.25l0,0.86c-0.394,-0.24 -0.849,-0.362 -1.31,-0.35c-1.224,0.059 -2.199,1.082 -2.199,2.307c0,0.098 0.007,0.196 0.019,0.293c0,1.8 0.73,3 2.24,3c0.438,0.001 0.869,-0.113 1.25,-0.33l0,0.87Z" style="fill:#66696f;fill-rule:nonzero;"/><path d="M215.36,1.041l3.24,-0l-0,0.76l-2.36,-0l-0,2.21l2.26,-0l0,0.76l-2.26,-0l-0,2.48l2.49,-0l-0,0.76l-3.37,-0l-0,-6.97Z" style="fill:#66696f;fill-rule:nonzero;"/><rect x="136.55" y="13.631" width="0.88" height="6.97" style="fill:#66696f;"/><path d="M139.17,13.631l1.09,-0l2.62,5.75l0.02,-0l-0,-5.75l0.84,-0l-0,6.97l-1.09,-0l-2.62,-5.72l-0.02,-0l0,5.72l-0.84,-0l0,-6.97Z" style="fill:#66696f;fill-rule:nonzero;"/><path d="M148.08,13.631l3.24,-0l0,0.75l-2.36,-0l0,2.22l2.25,-0l0,0.76l-2.25,-0l0,2.48l2.49,-0l0,0.76l-3.37,-0l0,-6.97Z" style="fill:#66696f;fill-rule:nonzero;"/><path d="M153,13.631l1.09,-0l2.63,5.75l0.02,-0l0,-5.75l0.83,-0l0,6.97l-1.08,-0l-2.63,-5.72l-0.02,-0l0,5.72l-0.84,-0l0,-6.97Z" style="fill:#66696f;fill-rule:nonzero;"/><path d="M163.98,20.311c-0.553,0.212 -1.138,0.334 -1.73,0.36c-2.21,-0 -3.14,-1.68 -3.14,-3.57c0,-2.18 1.27,-3.54 3.09,-3.54c0.563,-0.02 1.123,0.086 1.64,0.31l0,0.87c-0.504,-0.263 -1.062,-0.406 -1.63,-0.42c-1.223,0.053 -2.2,1.074 -2.2,2.298c0,0.101 0.007,0.202 0.02,0.302c0,1.8 0.72,3 2.24,3c0.3,-0 0.597,-0.065 0.87,-0.19l0,-2.22l-1.17,-0l0,-0.76l2,-0l0.01,3.56Z" style="fill:#66696f;fill-rule:nonzero;"/><rect x="165.81" y="13.631" width="0.88" height="6.97" style="fill:#66696f;"/><path d="M168.53,13.631l1.09,-0l2.62,5.75l0.03,-0l0,-5.75l0.83,-0l-0,6.97l-1.08,-0l-2.63,-5.72l-0.02,-0l0,5.72l-0.84,-0l0,-6.97Z" style="fill:#66696f;fill-rule:nonzero;"/><path d="M174.93,13.631l3.25,-0l0,0.75l-2.37,-0l0,2.22l2.26,-0l0,0.76l-2.26,-0l0,2.48l2.5,-0l0,0.76l-3.38,-0l0,-6.97Z" style="fill:#66696f;fill-rule:nonzero;"/><path d="M179.86,13.631l3.24,-0l-0,0.75l-2.36,-0l0,2.22l2.25,-0l0,0.76l-2.25,-0l0,2.48l2.49,-0l0,0.76l-3.37,-0l0,-6.97Z" style="fill:#66696f;fill-rule:nonzero;"/><path d="M185.65,16.721l0.68,-0c0.04,0.004 0.081,0.006 0.121,0.006c0.648,0 1.18,-0.533 1.18,-1.18c0,-0.019 -0,-0.037 -0.001,-0.056c0,-0.78 -0.51,-1.15 -1.28,-1.15l-0.7,-0l-0,2.38Zm-0.88,-3.09l1.79,-0c0.533,-0.047 1.063,0.123 1.47,0.47c0.343,0.355 0.528,0.836 0.51,1.33c0.049,0.824 -0.552,1.557 -1.37,1.67c0.369,0.043 0.671,0.317 0.75,0.68l1,2.8l-0.95,-0l-0.79,-2.36c-0.101,-0.515 -0.59,-0.868 -1.11,-0.8l-0.4,-0l-0,3.16l-0.88,-0l-0.02,-6.95Z" style="fill:#66696f;fill-rule:nonzero;"/><rect x="190.25" y="13.631" width="0.88" height="6.97" style="fill:#66696f;"/><path d="M192.97,13.631l1.09,-0l2.62,5.75l0.02,-0l0,-5.75l0.84,-0l0,6.97l-1.09,-0l-2.62,-5.72l-0.02,-0l0,5.72l-0.84,-0l0,-6.97Z" style="fill:#66696f;fill-rule:nonzero;"/><path d="M203.95,20.311c-0.55,0.212 -1.131,0.334 -1.72,0.36c-2.21,-0 -3.14,-1.68 -3.14,-3.57c0,-2.18 1.27,-3.54 3.09,-3.54c0.563,-0.02 1.123,0.086 1.64,0.31l0,0.87c-0.504,-0.263 -1.062,-0.406 -1.63,-0.42c-1.223,0.053 -2.2,1.074 -2.2,2.298c0,0.101 0.007,0.202 0.02,0.302c-0,1.8 0.72,3 2.24,3c0.3,-0 0.597,-0.065 0.87,-0.19l-0,-2.22l-1.17,-0l-0,-0.76l2,-0l-0,3.56Z" style="fill:#66696f;fill-rule:nonzero;"/><path d="M126.67,1.031l0,19.56" style="fill:none;fill-rule:nonzero;stroke:#66696f;stroke-width:0.5px;"/><path d="M5.11,20.591l-5.11,-0l0,-19.56l6.92,-0l9.07,13.51l8.53,-13.51l7.19,-0l0,19.56l-5.04,-0l-0,-14.38l-9.07,14.38l-3.36,-0l-9.14,-14.38l0.01,14.38Z" style="fill:#66696f;fill-rule:nonzero;"/><path d="M35.31,5.901c0.032,-1.359 0.718,-2.623 1.84,-3.39c1.299,-0.972 2.889,-1.476 4.51,-1.43l25.36,-0l0,5.13l-26.67,-0l-0,2.35l20.29,-0c1.658,-0.119 3.318,0.228 4.79,1c1.123,0.837 1.728,2.206 1.59,3.6l0,2.25c0.101,1.516 -0.583,2.983 -1.81,3.88c-1.346,0.908 -2.947,1.363 -4.57,1.3l-25.33,-0l-0,-5.18l26.47,-0l-0,-2.21l-20.16,-0c-1.607,0.039 -3.193,-0.381 -4.57,-1.21c-1.127,-0.771 -1.784,-2.066 -1.74,-3.43l0,-2.66Z" style="fill:#66696f;fill-rule:nonzero;"/><path d="M75.65,15.281l26.68,-0l0,5.31l-25.36,-0c-1.621,0.047 -3.212,-0.457 -4.51,-1.43c-1.139,-0.78 -1.827,-2.07 -1.84,-3.45l0,-7.29l31.71,-0l0,4.64l-26.68,-0l0,2.22Z" style="fill:#66696f;fill-rule:nonzero;"/><path d="M70.63,6.191l0,-0.3c0.016,-1.375 0.699,-2.659 1.83,-3.44c1.294,-0.973 2.882,-1.478 4.5,-1.43l25.36,-0l0,5.17l-31.69,-0Z" style="fill:#e2001a;fill-rule:nonzero;"/></svg>